<?xml version="1.0" encoding="UTF-8" standalone="no"?>
<svg
   version="1.1"
   width="730"
   height="730"
   id="svg188"
   sodipodi:docname="kayo_logo_fit_crop.svg"
   xml:space="preserve"
   inkscape:version="1.4.2 (f4327f4, 2025-05-13)"
   xmlns:inkscape="http://www.inkscape.org/namespaces/inkscape"
   xmlns:sodipodi="http://sodipodi.sourceforge.net/DTD/sodipodi-0.dtd"
   xmlns="http://www.w3.org/2000/svg"
   xmlns:svg="http://www.w3.org/2000/svg"><sodipodi:namedview
     id="namedview188"
     pagecolor="#141414"
     bordercolor="#000000"
     borderopacity="0.25"
     inkscape:showpageshadow="2"
     inkscape:pageopacity="0.0"
     inkscape:pagecheckerboard="true"
     inkscape:deskcolor="#d1d1d1"
     showguides="true"
     inkscape:zoom="2.0000001"
     inkscape:cx="638.99997"
     inkscape:cy="455.74998"
     inkscape:window-width="3840"
     inkscape:window-height="2126"
     inkscape:window-x="3829"
     inkscape:window-y="-5"
     inkscape:window-maximized="1"
     inkscape:current-layer="svg188"><inkscape:page
       x="0"
       y="0"
       width="730"
       height="730"
       id="page189"
       margin="0"
       bleed="0" /></sodipodi:namedview><defs
     id="defs188"><inkscape:path-effect
       effect="copy_rotate"
       starting_point="0,0"
       origin="512,512"
       id="path-effect2"
       is_visible="true"
       lpeversion="1.2"
       lpesatellites=""
       method="normal"
       num_copies="3"
       starting_angle="0"
       rotation_angle="120"
       gap="-0.01"
       copies_to_360="true"
       mirror_copies="false"
       split_items="false"
       link_styles="false" /><inkscape:path-effect
       effect="copy_rotate"
       starting_point="0,0"
       origin="512,512"
       id="path-effect22"
       is_visible="true"
       lpeversion="1.2"
       lpesatellites=""
       method="normal"
       num_copies="3"
       starting_angle="0"
       rotation_angle="120"
       gap="-0.01"
       copies_to_360="true"
       mirror_copies="false"
       split_items="false"
       link_styles="false" /><inkscape:path-effect
       effect="copy_rotate"
       starting_point="612,512"
       origin="512,512"
       id="path-effect20"
       is_visible="true"
       lpeversion="1.2"
       lpesatellites=""
       method="normal"
       num_copies="3"
       starting_angle="0"
       rotation_angle="120"
       gap="-0.01"
       copies_to_360="true"
       mirror_copies="false"
       split_items="false"
       link_styles="false" /><inkscape:path-effect
       effect="copy_rotate"
       starting_point="0,0"
       origin="512,512"
       id="path-effect7"
       is_visible="true"
       lpeversion="1.2"
       lpesatellites=""
       method="normal"
       num_copies="3"
       starting_angle="0"
       rotation_angle="120"
       gap="-0.01"
       copies_to_360="true"
       mirror_copies="false"
       split_items="false"
       link_styles="false" /><inkscape:path-effect
       effect="copy_rotate"
       starting_point="612,512"
       origin="512,512"
       id="path-effect39"
       is_visible="true"
       lpeversion="1.2"
       lpesatellites=""
       method="normal"
       num_copies="3"
       starting_angle="0"
       rotation_angle="120"
       gap="-0.01"
       copies_to_360="true"
       mirror_copies="false"
       split_items="false"
       link_styles="false" /><inkscape:path-effect
       effect="copy_rotate"
       starting_point="0,0"
       origin="512,512"
       id="path-effect37"
       is_visible="true"
       lpeversion="1.2"
       lpesatellites=""
       method="normal"
       num_copies="3"
       starting_angle="0"
       rotation_angle="120"
       gap="-0.01"
       copies_to_360="true"
       mirror_copies="false"
       split_items="false"
       link_styles="false" /><inkscape:path-effect
       effect="copy_rotate"
       starting_point="0,0"
       origin="512,512"
       id="path-effect35"
       is_visible="true"
       lpeversion="1.2"
       lpesatellites=""
       method="normal"
       num_copies="3"
       starting_angle="0"
       rotation_angle="120"
       gap="-0.01"
       copies_to_360="true"
       mirror_copies="false"
       split_items="false"
       link_styles="false" /><inkscape:path-effect
       effect="copy_rotate"
       starting_point="0,0"
       origin="512,512"
       id="path-effect33"
       is_visible="true"
       lpeversion="1.2"
       lpesatellites=""
       method="normal"
       num_copies="3"
       starting_angle="0"
       rotation_angle="120"
       gap="-0.01"
       copies_to_360="true"
       mirror_copies="false"
       split_items="false"
       link_styles="false" /><inkscape:path-effect
       effect="copy_rotate"
       starting_point="0,0"
       origin="512,512"
       id="path-effect12"
       is_visible="true"
       lpeversion="1.2"
       lpesatellites=""
       method="normal"
       num_copies="3"
       starting_angle="0"
       rotation_angle="120"
       gap="-0.01"
       copies_to_360="true"
       mirror_copies="false"
       split_items="false"
       link_styles="false" /><inkscape:path-effect
       effect="copy_rotate"
       starting_point="0,0"
       origin="512,512"
       id="path-effect6"
       is_visible="true"
       lpeversion="1.2"
       lpesatellites=""
       method="normal"
       num_copies="3"
       starting_angle="0"
       rotation_angle="120"
       gap="-0.01"
       copies_to_360="true"
       mirror_copies="false"
       split_items="false"
       link_styles="false" /><inkscape:path-effect
       effect="copy_rotate"
       starting_point="563.46587,505"
       origin="512,512"
       id="path-effect5"
       is_visible="true"
       lpeversion="1.2"
       lpesatellites=""
       method="normal"
       num_copies="3"
       starting_angle="0"
       rotation_angle="120"
       gap="0"
       copies_to_360="true"
       mirror_copies="false"
       split_items="false"
       link_styles="false" /><inkscape:path-effect
       effect="copy_rotate"
       starting_point="0,0"
       origin="512,512"
       id="path-effect204"
       is_visible="true"
       lpeversion="1.2"
       lpesatellites=""
       method="normal"
       num_copies="3"
       starting_angle="0"
       rotation_angle="120"
       gap="-0.01"
       copies_to_360="true"
       mirror_copies="false"
       split_items="false"
       link_styles="false" /><inkscape:path-effect
       effect="copy_rotate"
       starting_point="0,0"
       origin="512,512"
       id="path-effect202"
       is_visible="true"
       lpeversion="1.2"
       lpesatellites=""
       method="normal"
       num_copies="3"
       starting_angle="0"
       rotation_angle="120"
       gap="0"
       copies_to_360="true"
       mirror_copies="false"
       split_items="false"
       link_styles="false" /><inkscape:path-effect
       effect="copy_rotate"
       starting_point="612,512"
       origin="512,512"
       id="path-effect200"
       is_visible="true"
       lpeversion="1.2"
       lpesatellites=""
       method="normal"
       num_copies="3"
       starting_angle="0"
       rotation_angle="120"
       gap="-0.01"
       copies_to_360="true"
       mirror_copies="false"
       split_items="false"
       link_styles="false" /><inkscape:path-effect
       effect="copy_rotate"
       starting_point="0,0"
       origin="512,512"
       id="path-effect199"
       is_visible="true"
       lpeversion="1.2"
       lpesatellites=""
       method="normal"
       num_copies="3"
       starting_angle="0"
       rotation_angle="120"
       gap="0"
       copies_to_360="true"
       mirror_copies="false"
       split_items="false"
       link_styles="false" /><filter
       inkscape:collect="always"
       style="color-interpolation-filters:sRGB"
       id="filter8"
       x="-0.34226188"
       y="-0.32413471"
       width="1.6845238"
       height="1.6482694"><feGaussianBlur
         inkscape:collect="always"
         stdDeviation="80.111876"
         id="feGaussianBlur8" /></filter><filter
       inkscape:collect="always"
       style="color-interpolation-filters:sRGB"
       id="filter5"
       x="-0.11511913"
       y="-0.11697351"
       width="1.2302382"
       height="1.233947"><feGaussianBlur
         inkscape:collect="always"
         stdDeviation="25.964989"
         id="feGaussianBlur5" /></filter><mask
       maskUnits="userSpaceOnUse"
       id="mask1"><path
         d="m 372.68329,32.01992 c -7.49,0.003 -14.981,-0.0349 -22.469,0.0195 -17.028,0.38807 -33.875,4.68307 -49.246,11.95507 -18.358,8.6497 -34.63,21.3277 -48.494,36.0703 -14.751,15.7002 -26.892,33.6961 -36.791,52.8063 h -0.002 c -0.1,0.194 -0.2,0.387 -0.299,0.58 -0.109,0.212 -0.218,0.425 -0.326,0.637 -29.523,57.501 -60.342,114.347 -93.01,170.125 -26.636,45.553 -54.4785,90.392 -83.0646,134.744 -13.7704,21.478 -24.6679,44.997 -30.5039,69.899 -4.7491,20.329 -5.9808,41.665 -2.0489,62.24 2.624,13.864 7.9794,27.121 15.0118,39.361 1.721,2.996 3.4916,5.959 5.4062,8.823 -1.5527,-2.323 -3.0455,-4.69 -4.4727,-7.1 3.7449,6.48 7.4554,12.984 11.2442,19.437 8.8499,14.553 20.9929,26.994 34.9765,36.67 16.6694,11.574 35.7844,19.327 55.4844,23.963 20.972,4.924 42.627,6.439 64.127,5.457 l 0.002,0.002 c 65.012,-3.225 130.108,-4.985 195.203,-4.58 52.768,0.291 105.521,1.985 158.225,4.565 25.485,1.186 51.303,-1.137 75.787,-8.534 19.98,-6.051 39.072,-15.653 54.924,-29.345 10.465,-9.008 19.172,-19.959 26.179,-31.867 0.026,-0.047 0.053,-0.093 0.078,-0.139 0.434,-0.754 0.867,-1.507 1.301,-2.26 3.756,-6.512 7.549,-13.004 11.26,-19.541 8.178,-14.94 12.881,-31.679 14.27,-48.627 1.687,-20.223 -1.156,-40.653 -6.991,-60.031 -6.221,-20.624 -15.737,-40.137 -27.338,-58.266 l 0.002,-0.002 c -35.299,-54.689 -69.371,-110.185 -101.568,-166.761 -26.132,-45.844 -51.043,-92.376 -75.16,-139.309 -11.715,-22.6644 -26.636,-43.8603 -45.283,-61.3652 -15.231,-14.2773 -33.093,-26.0124 -52.877,-32.8945 -12.434,-4.3499 -25.597,-6.4275 -38.778,-6.70903 -0.718,-0.0153 -1.437,-0.005 -2.156,-0.01 -3.675,-0.024 -7.348,0.06993 -11.004,0.31053 2.792,-0.1838 5.595,-0.2932 8.401,-0.3242 z m -7.03,326.46117 c 4.072,0.031 8.141,0.403 12.153,1.127 3.898,0.69 7.659,1.755 11.289,3.138 l 0.004,0.002 c 13.698,7.058 25.988,16.715 33.211,30.344 4.663,8.733 7.555,18.383 8.552,28.227 v 0.002 l -0.002,0.002 v 0.002 0.002 c -0.522,16.288 -6.646,32.345 -17.175,44.793 -2.546,3.03 -5.349,5.754 -8.362,8.205 -12.962,8.335 -27.47,14.153 -42.886,13.594 -9.893,-0.328 -19.697,-2.65 -28.719,-6.708 l -0.008,-0.006 c -13.845,-8.596 -24.69,-21.927 -30.205,-37.269 -1.352,-3.72 -2.31,-7.51 -2.926,-11.344 -0.737,-15.393 1.479,-30.866 9.672,-43.937 5.231,-8.405 12.144,-15.736 20.17,-21.522 l 0.006,-0.002 c 10.775,-5.769 23.012,-8.744 35.226,-8.65 z"
         style="display:inline;fill:#ffffff;fill-opacity:1;stroke:none"
         id="path2" /></mask></defs><g
     id="g1"
     mask="url(#mask1)"><path
       d="M 446.552 323.746 C 480.038 322.215 518.071 327.078 557.702 344.567 C 638.864 383.947 716.652 469.481 718.61 563.576 C 719.129 581.744 711.644 618.746 711.644 618.746 C 711.644 618.746 713.086 644.331 699.774 655.787 C 683.922 669.48 646.595 703.615 626.615 709.667 C 602.132 717.063 573.132 716.558 547.646 715.371 C 494.943 712.791 435.179 718.92 382.411 718.629 C 317.316 718.224 195.591 714.283 135.175 700.361 C 131.075 692.728 201.092 689.243 271.063 671.969 C 326.928 652.542 361.506 636.204 399.36 586.881 C 425.221 557.261 443.279 512.721 446.575 478.971 C 446.542 437.809 442.827 411.099 409.515 381.837 C 399.72 373.859 387.602 366.937 375.154 364.734 C 359.109 361.84 340.551 367.217 326.184 374.909 C 306.077 378.149 338.145 351.777 340.784 350.307 C 357.687 341.107 390.741 326.298 446.552 323.746 Z"
       style="display:inline;fill:#464600;fill-opacity:1"
       id="path10" /><path
       d="M 379.63 26.9184 C 375.236 26.8246 364.032 28.3441 364.032 28.3441 C 364.032 28.3441 325.22 37.2742 309.745 46.807 C 229.235 95.5502 194.054 205.684 200.53 295.662 C 212.984 410.505 297.516 470.605 323.786 486.666 C 326.379 488.216 353.193 485.614 348.21 481.705 C 334.365 473.109 314.854 458.041 309.338 442.698 C 305.022 430.817 308.352 407.602 310.364 395.13 C 319.05 351.65 336.862 345.309 372.493 324.7 C 403.369 310.68 450.969 304.047 489.552 311.633 C 551.194 319.755 582.632 341.531 627.388 380.198 C 677.333 432.158 710.298 477.824 714.858 470.457 C 679.559 415.768 643.657 326.599 611.46 270.023 C 585.328 224.179 552.109 171.99 527.992 125.057 C 516.276 102.393 499.588 79.4291 480.941 61.9242 C 465.71 47.6468 438.879 40.4469 419.095 33.5648 C 406.661 29.215 392.81 27.1999 379.63 26.9184 Z"
       style="display:inline;fill:#460046;fill-opacity:1"
       id="path9" /><path
       d="M 226.11 106.709 C 196.398 164.624 142.57 239.733 109.672 295.905 C 83.036 341.458 48.6527 389.478 20.0666 433.831 C 6.2963 455.309 -3.7173 485.545 -9.5534 510.447 C -14.3024 530.776 -9.5238 556.709 -5.5918 577.283 C -2.3257 594.54 11.0988 608.781 20.8366 623.345 C 31.6124 638.027 50.649 650.645 66.6419 659.28 C 149.109 704.632 262.079 680.034 336.765 629.436 C 429.994 561.229 437.479 458.854 438.254 428.074 C 438.3 425.053 424.859 402.505 423.966 408.775 C 423.444 425.064 421.385 450.136 410.856 462.584 C 402.725 472.263 394.798 480.94 382.991 485.434 C 340.993 499.651 311.592 486.545 275.929 465.992 C 248.349 446.263 218.806 408.355 206.085 371.149 C 182.297 313.705 185.438 275.59 196.546 217.496 C 216.572 148.262 234.771 106.974 226.11 106.708 Z"
       style="display:inline;fill:#004646;fill-opacity:1"
       id="path8" /><path
       id="path17"
       style="display:inline;fill:none;fill-opacity:1;filter:url(#filter8);mix-blend-mode:color-dodge;opacity:0.6;stroke:#ffffff;stroke-dasharray:none;stroke-linecap:round;stroke-opacity:1;stroke-width:200.0"
       d="M 370.884 472.239 C 357.188 472.809 330.573 458.133 332.629 432.345 M -78.4524 647.177 C -70.8662 569.927 -72.1098 513.936 -35.8453 451.762 C -0.7603 391.61 3.3959 327.248 -8.30117 258.456 M 399.311 402.616 C 406.653 414.192 407.25 444.579 383.889 455.692 M 775.48 704.283 C 704.786 736.339 656.919 765.411 584.942 765.092 C 515.307 764.784 457.49 793.365 403.762 837.891 M 324.802 412.808 C 331.156 400.662 357.173 384.952 378.479 399.626 M 397.969 -63.7974 C 461.077 -18.6023 510.188 8.316 545.9 70.809 C 580.451 131.269 634.112 167.05 699.536 191.316"
       clip-path="none"
       mask="none" /><path
       id="path37"
       style="display:inline;fill:none;fill-opacity:1;filter:url(#filter5);mix-blend-mode:color-dodge;stroke:#ffffff;stroke-dasharray:none;stroke-linecap:round;stroke-opacity:1;stroke-width:80.0"
       d="M 386.183 426.836 C 380.916 446.095 364.996 449.99 345.045 440.542 M -15.675 755.911 C -15.675 755.911 -68.6743 528.536 -32.9666 460.498 C 29.1981 342.049 91.1103 284.119 85.2483 150.414 M 357.538 403.068 C 376.85 397.999 388.183 409.839 389.976 431.841 M 843.454 586.55 C 843.454 586.55 673.042 746.136 596.265 749.231 C 462.602 754.62 381.477 729.967 268.616 801.896 M 351.277 439.759 C 337.231 425.569 341.818 409.834 359.975 397.28 M 267.218 -72.7975 C 267.218 -72.7975 490.63 -5.009 531.699 59.9339 C 603.197 172.995 622.409 255.578 741.133 317.353"
       clip-path="none"
       mask="none" /><path
       d="M 389.094 362.747 C 393.911 373.606 409.517 382.334 416.741 395.964 C 422.441 406.638 430.154 414.088 430.887 421.58 C 431.955 432.486 430.305 445.58 428.381 456.04 C 422.718 486.21 410.526 515.013 393.719 540.646 C 373.907 570.857 347.94 596.825 318.558 617.752 C 288.953 638.801 255.749 654.886 220.702 664.522 C 194.81 671.601 167.824 675.141 140.977 673.692 C 119.331 672.506 97.7173 668 77.8861 659.103 C 61.1751 651.624 45.8072 640.897 33.6671 627.136 C 28.8888 621.73 24.6133 615.874 20.923 609.674 C 11.9485 616.098 13.841 626.832 18.1183 634.117 C 26.9681 648.669 37.1121 662.986 51.0958 672.662 C 67.7654 684.235 76.1508 688.599 95.8503 693.235 C 120.496 699.021 174.314 699.115 199.486 696.966 C 231.538 694.189 263.032 686.257 293.011 674.686 C 317.213 665.308 340.522 653.546 362.222 639.29 C 381.782 626.377 400.084 611.309 415.285 593.4 C 427.527 579.027 437.574 562.762 444.703 545.27 C 453.729 523.139 458.307 499.168 457.83 475.262 C 457.413 454.529 453.026 433.719 443.82 415.068 C 436.559 400.286 426.177 387.03 413.446 376.57 C 406.183 370.578 397.664 365.411 389.094 362.747 Z M 300.58 432.591 C 307.575 422.99 307.33 405.111 315.523 392.04 C 321.917 381.767 324.512 371.361 330.633 366.981 C 339.545 360.603 351.709 355.485 361.73 351.921 C 390.69 341.74 421.729 337.898 452.332 339.636 C 488.402 341.688 523.874 351.192 556.688 366.174 C 589.72 381.288 620.252 402.002 646.12 427.535 C 665.197 446.419 681.756 468.019 693.925 491.994 C 703.721 511.333 710.625 532.305 712.835 553.927 C 714.714 572.139 713.108 590.812 707.26 608.206 C 704.968 615.047 702.034 621.678 698.51 627.973 C 708.56 632.534 716.91 625.528 721.081 618.181 C 729.259 603.24 736.585 587.297 737.973 570.349 C 739.661 550.126 739.247 540.682 733.412 521.304 C 726.101 497.067 699.273 450.412 684.826 429.687 C 666.394 403.318 643.778 380.01 618.768 359.832 C 598.546 343.561 576.705 329.256 553.508 317.591 C 532.546 307.108 510.345 298.792 487.236 294.582 C 468.667 291.167 449.558 290.598 430.845 293.171 C 407.165 296.419 384.118 304.441 363.652 316.807 C 345.905 327.534 330.077 341.738 318.527 359.036 C 309.357 372.716 303.068 388.335 300.374 404.591 C 298.817 413.876 298.601 423.837 300.58 432.591 Z M 405.323 474.325 C 393.511 473.067 378.149 482.219 362.733 481.659 C 350.64 481.258 340.331 484.213 333.476 481.103 C 323.498 476.574 312.983 468.598 304.886 461.702 C 281.589 441.713 262.742 416.753 248.946 389.381 C 232.688 357.117 223.183 321.645 219.751 285.737 C 216.324 249.573 218.996 212.775 228.175 177.606 C 234.99 151.643 245.417 126.503 260.096 103.976 C 271.946 85.8234 286.655 69.3584 304.276 56.6328 C 319.108 45.9 336.082 37.9547 354.07 34.3216 C 361.14 32.8862 368.35 32.1119 375.564 32.0158 C 374.488 21.0318 364.246 17.3038 355.798 17.3652 C 338.771 17.7533 321.3 19.3802 305.929 26.6522 C 287.571 35.3019 279.599 40.3821 265.735 55.1247 C 248.401 73.5749 221.41 120.136 210.686 143.01 C 197.064 172.157 188.187 203.397 183.218 235.146 C 179.238 260.794 177.77 286.861 179.267 312.782 C 180.669 336.178 184.567 359.562 192.476 381.68 C 198.803 399.469 207.865 416.302 219.45 431.222 C 234.102 450.105 252.573 466.054 273.515 477.594 C 291.679 487.6 311.894 494.205 332.649 495.559 C 349.081 496.661 365.753 494.298 381.177 488.503 C 389.997 485.209 398.732 480.415 405.323 474.325 Z"
       id="path190"
       style="display:inline;fill:#ffffff;fill-opacity:1" /></g></svg>
