<?xml version="1.0" encoding="UTF-8" standalone="no"?>
<svg
   version="1.1"
   width="1024"
   height="1024"
   id="svg188"
   sodipodi:docname="kayo_logo_maskable.svg"
   xml:space="preserve"
   inkscape:version="1.4.2 (f4327f4, 2025-05-13)"
   xmlns:inkscape="http://www.inkscape.org/namespaces/inkscape"
   xmlns:sodipodi="http://sodipodi.sourceforge.net/DTD/sodipodi-0.dtd"
   xmlns="http://www.w3.org/2000/svg"
   xmlns:svg="http://www.w3.org/2000/svg"><defs
     id="defs188"><inkscape:path-effect
       effect="copy_rotate"
       starting_point="0,0"
       origin="512,512"
       id="path-effect2"
       is_visible="true"
       lpeversion="1.2"
       lpesatellites=""
       method="normal"
       num_copies="3"
       starting_angle="0"
       rotation_angle="120"
       gap="-0.01"
       copies_to_360="true"
       mirror_copies="false"
       split_items="false"
       link_styles="false" /><inkscape:path-effect
       effect="copy_rotate"
       starting_point="0,0"
       origin="512,512"
       id="path-effect22"
       is_visible="true"
       lpeversion="1.2"
       lpesatellites=""
       method="normal"
       num_copies="3"
       starting_angle="0"
       rotation_angle="120"
       gap="-0.01"
       copies_to_360="true"
       mirror_copies="false"
       split_items="false"
       link_styles="false" /><inkscape:path-effect
       effect="copy_rotate"
       starting_point="0,0"
       origin="512,512"
       id="path-effect20"
       is_visible="true"
       lpeversion="1.2"
       lpesatellites=""
       method="normal"
       num_copies="3"
       starting_angle="0"
       rotation_angle="120"
       gap="-0.01"
       copies_to_360="true"
       mirror_copies="false"
       split_items="false"
       link_styles="false" /><inkscape:path-effect
       effect="copy_rotate"
       starting_point="0,0"
       origin="512,512"
       id="path-effect7"
       is_visible="true"
       lpeversion="1.2"
       lpesatellites=""
       method="normal"
       num_copies="3"
       starting_angle="0"
       rotation_angle="120"
       gap="-0.01"
       copies_to_360="true"
       mirror_copies="false"
       split_items="false"
       link_styles="false" /><inkscape:path-effect
       effect="copy_rotate"
       starting_point="0,0"
       origin="512,512"
       id="path-effect39"
       is_visible="true"
       lpeversion="1.2"
       lpesatellites=""
       method="normal"
       num_copies="3"
       starting_angle="0"
       rotation_angle="120"
       gap="-0.01"
       copies_to_360="true"
       mirror_copies="false"
       split_items="false"
       link_styles="false" /><inkscape:path-effect
       effect="copy_rotate"
       starting_point="0,0"
       origin="512,512"
       id="path-effect37"
       is_visible="true"
       lpeversion="1.2"
       lpesatellites=""
       method="normal"
       num_copies="3"
       starting_angle="0"
       rotation_angle="120"
       gap="-0.01"
       copies_to_360="true"
       mirror_copies="false"
       split_items="false"
       link_styles="false" /><inkscape:path-effect
       effect="copy_rotate"
       starting_point="0,0"
       origin="512,512"
       id="path-effect35"
       is_visible="true"
       lpeversion="1.2"
       lpesatellites=""
       method="normal"
       num_copies="3"
       starting_angle="0"
       rotation_angle="120"
       gap="-0.01"
       copies_to_360="true"
       mirror_copies="false"
       split_items="false"
       link_styles="false" /><inkscape:path-effect
       effect="copy_rotate"
       starting_point="0,0"
       origin="512,512"
       id="path-effect33"
       is_visible="true"
       lpeversion="1.2"
       lpesatellites=""
       method="normal"
       num_copies="3"
       starting_angle="0"
       rotation_angle="120"
       gap="-0.01"
       copies_to_360="true"
       mirror_copies="false"
       split_items="false"
       link_styles="false" /><inkscape:path-effect
       effect="copy_rotate"
       starting_point="0,0"
       origin="512,512"
       id="path-effect12"
       is_visible="true"
       lpeversion="1.2"
       lpesatellites=""
       method="normal"
       num_copies="3"
       starting_angle="0"
       rotation_angle="120"
       gap="-0.01"
       copies_to_360="true"
       mirror_copies="false"
       split_items="false"
       link_styles="false" /><inkscape:path-effect
       effect="copy_rotate"
       starting_point="0,0"
       origin="512,512"
       id="path-effect6"
       is_visible="true"
       lpeversion="1.2"
       lpesatellites=""
       method="normal"
       num_copies="3"
       starting_angle="0"
       rotation_angle="120"
       gap="-0.01"
       copies_to_360="true"
       mirror_copies="false"
       split_items="false"
       link_styles="false" /><inkscape:path-effect
       effect="copy_rotate"
       starting_point="563.46587,505"
       origin="512,512"
       id="path-effect5"
       is_visible="true"
       lpeversion="1.2"
       lpesatellites=""
       method="normal"
       num_copies="3"
       starting_angle="0"
       rotation_angle="120"
       gap="0"
       copies_to_360="true"
       mirror_copies="false"
       split_items="false"
       link_styles="false" /><inkscape:path-effect
       effect="copy_rotate"
       starting_point="0,0"
       origin="512,512"
       id="path-effect204"
       is_visible="true"
       lpeversion="1.2"
       lpesatellites=""
       method="normal"
       num_copies="3"
       starting_angle="0"
       rotation_angle="120"
       gap="-0.01"
       copies_to_360="true"
       mirror_copies="false"
       split_items="false"
       link_styles="false" /><inkscape:path-effect
       effect="copy_rotate"
       starting_point="0,0"
       origin="512,512"
       id="path-effect202"
       is_visible="true"
       lpeversion="1.2"
       lpesatellites=""
       method="normal"
       num_copies="3"
       starting_angle="0"
       rotation_angle="120"
       gap="0"
       copies_to_360="true"
       mirror_copies="false"
       split_items="false"
       link_styles="false" /><inkscape:path-effect
       effect="copy_rotate"
       starting_point="0,0"
       origin="512,512"
       id="path-effect200"
       is_visible="true"
       lpeversion="1.2"
       lpesatellites=""
       method="normal"
       num_copies="3"
       starting_angle="0"
       rotation_angle="120"
       gap="-0.01"
       copies_to_360="true"
       mirror_copies="false"
       split_items="false"
       link_styles="false" /><inkscape:path-effect
       effect="copy_rotate"
       starting_point="0,0"
       origin="512,512"
       id="path-effect199"
       is_visible="true"
       lpeversion="1.2"
       lpesatellites=""
       method="normal"
       num_copies="3"
       starting_angle="0"
       rotation_angle="120"
       gap="0"
       copies_to_360="true"
       mirror_copies="false"
       split_items="false"
       link_styles="false" /><filter
       inkscape:collect="always"
       style="color-interpolation-filters:sRGB"
       id="filter8"
       x="-0.34226162"
       y="-0.32413462"
       width="1.6845232"
       height="1.6482692"><feGaussianBlur
         inkscape:collect="always"
         stdDeviation="80.111876"
         id="feGaussianBlur8" /></filter><filter
       inkscape:collect="always"
       style="color-interpolation-filters:sRGB"
       id="filter5"
       x="-0.11511906"
       y="-0.11697348"
       width="1.2302381"
       height="1.233947"><feGaussianBlur
         inkscape:collect="always"
         stdDeviation="25.964989"
         id="feGaussianBlur5" /></filter><mask
       maskUnits="userSpaceOnUse"
       id="mask1"><path
         d="m 519.68359,120.79883 c -7.48914,0.003 -14.98096,-0.0349 -22.46875,0.0195 -17.02755,0.3881 -33.87439,4.68303 -49.24609,11.95508 -18.35761,8.64965 -34.62944,21.3277 -48.49414,36.07031 -14.75017,15.7002 -26.89142,33.69608 -36.79102,52.80664 h -0.002 c -0.0993,0.19352 -0.19952,0.38658 -0.29883,0.58008 -0.10911,0.21187 -0.21762,0.42457 -0.32617,0.63672 -29.52289,57.50053 -60.34183,114.34656 -93.00977,170.125 -26.63584,45.55328 -54.47833,90.39155 -83.06445,134.74414 -13.77034,21.47786 -24.66784,44.99696 -30.5039,69.89844 -4.74904,20.32908 -5.9808,41.66566 -2.04883,62.24023 2.62397,13.86367 7.97934,27.12066 15.01172,39.36133 1.72109,2.99576 3.49163,5.95871 5.40625,8.82226 -1.55273,-2.3223 -3.04549,-4.6895 -4.47266,-7.09961 3.74489,6.48045 7.45533,12.98399 11.24414,19.4375 8.84988,14.55225 20.99293,26.99367 34.97656,36.66993 16.66962,11.57333 35.78455,19.32701 55.48438,23.96289 20.97184,4.92391 42.62694,6.43901 64.12695,5.45703 l 0.002,0.002 c 65.01246,-3.2257 130.10779,-4.98495 195.20313,-4.58008 52.76822,0.29068 105.52108,1.98445 158.22461,4.56446 25.48554,1.18653 51.30376,-1.13664 75.78711,-8.53321 19.98002,-6.05175 39.07171,-15.65323 54.92383,-29.3457 10.46552,-9.00737 19.17241,-19.9589 26.17968,-31.86719 0.0258,-0.0461 0.0524,-0.0925 0.0781,-0.13867 0.43316,-0.75363 0.86644,-1.5067 1.30078,-2.25977 3.75587,-6.51199 7.54905,-13.00449 11.25977,-19.54101 8.17767,-14.94035 12.88145,-31.67864 14.26953,-48.62695 1.68798,-20.22298 -1.15511,-40.65276 -6.99024,-60.03125 -6.22168,-20.62411 -15.73746,-40.13706 -27.33789,-58.26563 l 0.002,-0.002 C 802.80961,473.17174 768.73805,417.67626 736.54102,361.09961 710.40864,315.25566 685.49827,268.72362 661.38086,221.79102 c -11.7152,-22.6644 -26.63592,-43.86032 -45.2832,-61.36524 -15.23098,-14.27733 -33.09287,-26.01243 -52.87696,-32.89453 -12.43332,-4.34981 -25.59702,-6.42748 -38.77734,-6.70898 -0.71875,-0.0153 -1.43747,-0.005 -2.15625,-0.01 -3.67482,-0.024 -7.34848,0.0699 -11.00391,0.31055 2.79214,-0.18386 5.59463,-0.29322 8.40039,-0.32422 z m -7.02929,326.46094 c 4.07142,0.0313 8.14118,0.40333 12.15234,1.12695 3.89803,0.68979 7.65973,1.75486 11.28906,3.13867 8e-4,4.1e-4 0.003,0.002 0.004,0.002 13.69835,7.05797 25.98831,16.71442 33.21094,30.34375 4.66329,8.73244 7.55545,18.38291 8.55273,28.22657 0,0 0,0.002 0,0.002 l -0.002,0.002 v 0.002 0.002 c -0.52208,16.2884 -6.64676,32.34513 -17.17578,44.79297 -2.54607,3.0305 -5.34908,5.75433 -8.36133,8.20508 -12.96248,8.3354 -27.4706,14.15349 -42.88672,13.59375 -9.89288,-0.32765 -19.69622,-2.64985 -28.71875,-6.70704 -0.003,-0.002 -0.005,-0.004 -0.008,-0.006 -13.84513,-8.59632 -24.68944,-21.92721 -30.20508,-37.26953 -1.35132,-3.71981 -2.30939,-7.50986 -2.92578,-11.34375 -0.73743,-15.39354 1.47906,-30.86662 9.67187,-43.9375 5.23079,-8.40461 12.14387,-15.73603 20.16992,-21.52148 0.002,-8.7e-4 0.004,-0.001 0.006,-0.002 10.77541,-5.76906 23.01228,-8.74429 35.22657,-8.65039 z"
         style="display:inline;fill:#ffffff;fill-opacity:1;stroke:none"
         id="path2" /></mask></defs><sodipodi:namedview
     id="namedview188"
     pagecolor="#141414"
     bordercolor="#000000"
     borderopacity="0.25"
     inkscape:showpageshadow="2"
     inkscape:pageopacity="0.0"
     inkscape:pagecheckerboard="true"
     inkscape:deskcolor="#d1d1d1"
     showguides="true"
     inkscape:zoom="1.0000001"
     inkscape:cx="952.99995"
     inkscape:cy="804.49996"
     inkscape:window-width="3840"
     inkscape:window-height="2126"
     inkscape:window-x="3829"
     inkscape:window-y="-5"
     inkscape:window-maximized="1"
     inkscape:current-layer="svg188"><inkscape:page
       x="0"
       y="0"
       width="1024"
       height="1024"
       id="page189"
       margin="0"
       bleed="0" /></sodipodi:namedview><rect
     style="fill:#161616;stroke-width:80;stroke-linecap:round;fill-opacity:1"
     id="rect1"
     width="1024"
     height="1024"
     x="0"
     y="0" /><g
     id="g1"
     mask="url(#mask1)"><path
       d="m 593.55273,412.52539 c 33.48614,-1.53105 71.519,3.33188 111.15039,20.82031 81.16175,39.38041 158.95036,124.91449 160.90821,219.00977 0.51839,18.16773 -6.96597,55.17 -6.96597,55.17 0,0 1.44157,25.5841 -11.87003,37.041 -15.85212,13.69247 -53.17909,47.82733 -73.15911,53.87908 -24.48335,7.39657 -53.48355,6.89131 -78.96909,5.70478 -52.70353,-2.58001 -112.4668,3.54855 -165.23502,3.25787 -65.09534,-0.40487 -186.81987,-4.34663 -247.23614,-18.26827 -4.09983,-7.63285 65.91688,-11.11814 135.88848,-28.39188 55.86432,-19.42659 90.44263,-35.76526 128.29688,-85.08789 25.86117,-29.62014 43.91823,-74.16053 47.21484,-107.91016 -0.0328,-41.16177 -3.74799,-67.87167 -37.05974,-97.13412 -9.79535,-7.97788 -21.91373,-14.89989 -34.36144,-17.10264 -16.04466,-2.89448 -34.60269,2.48302 -48.9699,10.17509 -20.10729,3.2401 11.96112,-23.13191 14.60007,-24.60239 16.90258,-9.19984 49.95734,-24.00881 105.76757,-26.56055 z"
       style="display:inline;fill:#464600;fill-opacity:1"
       id="path10"
       inkscape:label="yellow"
       sodipodi:nodetypes="scccccccccccccccs" /><path
       d="m 526.63086,115.69727 c -4.39344,-0.0938 -15.59766,1.42578 -15.59766,1.42578 0,0 -38.81259,8.93008 -54.28711,18.46289 -80.50997,48.74319 -115.69128,158.87713 -109.21484,248.85547 12.45406,114.84268 96.98612,174.94286 123.25586,191.0039 2.59294,1.55015 29.40737,-1.05211 24.42383,-4.96094 -13.84513,-8.59633 -33.35581,-23.66465 -38.87145,-39.00697 -4.31622,-11.8814 -0.98631,-35.09599 1.02505,-47.56795 8.68615,-43.48005 26.49888,-49.82162 62.1296,-70.43093 30.87634,-14.01987 78.47622,-20.65278 117.05859,-13.06641 61.64178,8.12142 93.07987,29.89783 137.83594,68.56445 49.94531,51.96032 82.91038,97.62676 87.4707,90.25977 -35.29976,-54.68959 -71.20101,-143.85817 -103.39804,-200.43482 -26.13238,-45.84395 -59.35125,-98.03284 -83.46866,-144.96544 -11.7152,-22.6644 -28.40369,-45.62809 -47.05097,-63.13301 -15.23098,-14.27733 -42.06191,-21.47721 -61.846,-28.35931 -12.43332,-4.34981 -26.28452,-6.36498 -39.46484,-6.64648 z"
       style="display:inline;fill:#460046;fill-opacity:1"
       id="path9"
       inkscape:label="magenta"
       sodipodi:nodetypes="scccccccccccccccs" /><path
       d="m 373.11146,195.48744 c -29.71269,57.91529 -83.54065,133.02447 -116.43896,189.19625 -26.63584,45.55328 -61.01907,93.57353 -89.60519,137.92612 -13.77034,21.47786 -23.78395,51.71447 -29.62001,76.61595 -4.74904,20.32908 0.0296,46.26185 3.96158,66.83642 3.26616,17.25664 16.69063,31.49823 26.42837,46.06227 10.77585,14.68171 29.81242,27.29922 45.80533,35.93414 82.46783,45.35209 195.43774,20.75418 270.12304,-29.84375 93.22965,-68.20687 100.71461,-170.58143 101.48901,-201.36221 0.046,-3.02063 -13.39422,-25.5686 -14.28759,-19.29831 -0.52208,16.2884 -2.5809,41.36075 -13.10992,53.80859 -8.13149,9.67866 -16.05821,18.35574 -27.86493,22.84983 -41.9979,14.2176 -71.39895,1.11119 -107.0625,-19.44126 -27.57973,-19.72976 -57.12255,-57.63725 -69.84375,-94.84375 -23.78753,-57.44406 -20.64731,-95.55913 -9.53907,-153.65234 20.0263,-69.23406 38.22475,-110.52209 29.56459,-110.78795 z"
       style="display:inline;fill:#004646;fill-opacity:1"
       id="path8"
       inkscape:label="cyan"
       sodipodi:nodetypes="cccccccccccccccc" /><path
       id="path17"
       style="display:inline;opacity:0.6;mix-blend-mode:color-dodge;fill:none;fill-opacity:1;stroke:#ffffff;stroke-width:200;stroke-linecap:round;stroke-dasharray:none;stroke-opacity:1;filter:url(#filter8)"
       d="m 517.88464,555.01815 c -13.6961,0.57002 -40.31038,-14.1063 -38.25483,-39.8943 M 68.548257,729.956 c 7.586263,-77.25033 6.342691,-133.24094 42.607093,-195.41512 35.085,-60.15213 39.24128,-124.51345 27.54418,-193.30584 m 407.61296,144.15964 c 7.3417,11.57616 7.93878,41.96296 -15.42206,53.0768 M 922.4813,787.06247 c -70.69388,32.05527 -118.56138,61.12754 -190.538,60.80874 -69.63577,-0.30844 -127.45245,28.27278 -181.17986,72.79896 m -78.96057,-425.083 c 6.3544,-12.14618 32.3716,-27.85666 53.67689,-13.1825 M 544.97044,18.981525 c 63.10762,45.195062 112.21869,72.113402 147.93091,134.606385 34.55077,60.46057 88.21117,96.24067 153.63568,120.50688"
       clip-path="none"
       sodipodi:nodetypes="cccsc"
       inkscape:original-d="m 517.88464,555.01815 c -13.6961,0.57002 -40.31038,-14.1063 -38.25483,-39.8943 M 68.548257,729.956 c 7.586263,-77.25033 6.342691,-133.24094 42.607093,-195.41512 35.085,-60.15213 39.24128,-124.51345 27.54418,-193.30584"
       inkscape:path-effect="#path-effect20"
       inkscape:label="softPath"
       mask="none"
       transform="translate(0,6)" /><path
       id="path37"
       style="display:inline;mix-blend-mode:color-dodge;fill:none;fill-opacity:1;stroke:#ffffff;stroke-width:80;stroke-linecap:round;stroke-dasharray:none;stroke-opacity:1;filter:url(#filter5)"
       d="m 533.18363,515.61485 c -5.26618,19.25904 -21.1866,23.15411 -41.13743,13.70632 M 131.32569,844.69004 c 0,0 -52.999333,-227.37466 -17.29158,-295.41282 62.16468,-118.44963 124.07732,-176.3795 118.21493,-310.08453 m 272.2897,252.65432 c 19.3119,-5.06887 30.64534,6.77108 32.43873,28.7729 M 990.45518,675.3286 c 0,0 -170.41256,159.5861 -247.18922,162.68136 -133.66272,5.38862 -214.78778,-19.26436 -327.64854,52.66513 m 82.66021,-362.13695 c -14.04572,-14.19017 -9.45874,-29.92519 8.6987,-42.47922 M 414.21913,15.981357 c 0,0 223.4119,67.788561 264.4808,132.731463 71.49804,113.06101 90.71046,195.64386 209.43361,257.4194"
       clip-path="none"
       sodipodi:nodetypes="cccsc"
       inkscape:original-d="m 533.18363,515.61485 c -5.26618,19.25904 -21.1866,23.15411 -41.13743,13.70632 M 131.32569,844.69004 c 0,0 -52.999333,-227.37466 -17.29158,-295.41282 62.16468,-118.44963 124.07732,-176.3795 118.21493,-310.08453"
       inkscape:path-effect="#path-effect39"
       inkscape:label="keyPath"
       mask="none" /><path
       d="m 536.09479,451.52623 c 4.81688,10.85884 20.42355,19.58628 27.64686,33.2169 5.69996,10.67368 13.41344,18.12422 14.1467,25.61543 1.06752,10.90618 -0.58211,24.00031 -2.50668,34.46031 -5.66222,30.17037 -17.85445,58.97263 -34.66179,84.60603 -19.8118,30.21137 -45.77876,56.17941 -75.16046,77.10606 -29.60522,21.04946 -62.80957,37.13407 -97.85626,46.76972 -25.8919,7.07906 -52.87799,10.61949 -79.72542,9.17071 -21.64618,-1.18611 -43.26001,-5.69242 -63.09096,-14.5895 -16.71098,-7.47855 -32.07892,-18.20611 -44.21898,-31.96711 -4.77831,-5.40551 -9.05379,-11.26226 -12.74413,-17.46195 -8.97442,6.42385 -7.08202,17.15775 -2.80471,24.44334 8.84988,14.55225 18.99388,28.86843 32.97751,38.54469 16.66962,11.57333 25.05502,15.93684 44.75485,20.57272 24.64522,5.78638 78.46366,5.88065 103.63525,3.7314 32.05263,-2.77717 63.54613,-10.70944 93.5259,-22.28007 24.20158,-9.37771 47.51036,-21.14012 69.21082,-35.3964 19.55992,-12.9123 37.86221,-27.98066 53.0628,-45.88923 12.24165,-14.37328 22.28925,-30.63797 29.41749,-48.13051 9.02681,-22.1307 13.60396,-46.10141 13.12692,-70.0081 -0.41666,-20.73305 -4.80362,-41.5426 -14.00927,-60.19402 -7.26112,-14.78148 -17.64349,-28.03794 -30.37441,-38.49803 -7.2627,-5.99183 -15.7818,-11.15889 -24.35203,-13.82239 z m -88.51401,69.84395 c 6.9956,-9.60096 6.75044,-27.48045 14.94325,-40.55133 6.3937,-10.27315 8.98932,-20.67849 15.11027,-25.05911 8.91127,-6.37759 21.07593,-11.49604 31.09684,-15.05931 28.95942,-10.18156 59.99902,-14.02391 90.60187,-12.28503 36.06971,2.05184 71.54217,11.55587 104.35603,26.53784 33.03198,15.11414 63.56384,35.82765 89.4319,61.36115 19.07659,18.88351 35.63574,40.48394 47.80478,64.45888 9.79589,19.3392 16.70022,40.31048 18.9106,61.93313 1.87887,18.21141 0.27251,36.88421 -5.57484,54.27831 -2.29215,6.8409 -5.22651,13.47194 -8.75043,19.76772 10.05043,4.56015 18.40006,-2.44567 22.57091,-9.79272 8.17768,-14.94035 15.50385,-30.8834 16.89193,-47.83171 1.68798,-20.22298 1.27419,-29.6667 -4.56093,-49.0452 -7.31146,-24.23657 -34.13904,-70.89184 -48.58614,-91.61645 -18.43141,-26.36981 -41.04771,-49.67785 -66.05805,-69.85578 -20.22213,-16.27032 -42.06307,-30.57511 -65.2596,-42.24012 -20.96234,-10.48324 -43.16306,-18.79931 -66.27264,-23.00912 -18.56845,-3.41494 -37.67788,-3.98407 -56.39098,-1.41104 -23.67916,3.2479 -46.72698,11.26933 -67.19226,23.6358 -17.74702,10.72737 -33.57513,24.93136 -45.12491,42.2294 -9.17058,13.67905 -15.45983,29.29868 -18.15307,45.55402 -1.55773,9.2856 -1.77298,19.24689 0.20547,28.00067 z m 104.74365,41.73341 c -11.81248,-1.25788 -27.17399,7.89417 -42.59011,7.33443 -12.09366,-0.40053 -22.40276,2.55427 -29.25697,-0.55632 -9.97879,-4.52859 -20.49382,-12.50427 -28.59016,-19.401 -23.2972,-19.98881 -42.14457,-44.94872 -55.94008,-72.321 -16.25791,-32.26321 -25.76341,-67.73528 -29.19557,-103.6439 -3.42676,-36.1636 -0.75427,-72.96172 8.42436,-108.13087 6.81531,-25.96257 17.24225,-51.10343 31.92064,-73.62959 11.85029,-18.15309 26.55979,-34.61806 44.18036,-47.34363 14.83211,-10.73286 31.80641,-18.6781 49.79382,-22.3112 7.07046,-1.43539 14.2803,-2.20968 21.49456,-2.30577 -1.07601,-10.984 -11.31804,-14.71208 -19.7662,-14.65062 -17.02756,0.3881 -34.49773,2.01497 -49.86944,9.28702 -18.3576,8.64965 -26.32921,13.72986 -40.19392,28.47248 -17.33376,18.45019 -44.32462,65.01119 -55.04911,87.88505 -13.62122,29.14698 -22.49842,60.38729 -27.46785,92.13585 -3.97945,25.64803 -5.44729,51.71523 -3.95122,77.63652 1.40242,23.39554 5.30085,46.77997 13.20984,68.89835 6.3268,17.78822 15.38863,34.62204 26.97349,49.54155 14.65235,18.8828 33.12302,34.83208 54.06534,46.3723 18.16368,10.00568 38.37875,16.61124 59.13418,17.96462 16.4317,1.10243 33.10332,-1.26074 48.52748,-7.05599 8.82043,-3.29377 17.55478,-8.088 24.14656,-14.17828 z"
       id="path190"
       style="display:inline;fill:#ffffff;fill-opacity:1"
       sodipodi:nodetypes="ccscccccccccccccccccccc"
       inkscape:label="blades"
       inkscape:original-d="m 536.09479,451.52623 c 4.81688,10.85884 20.42355,19.58628 27.64686,33.2169 5.69996,10.67368 13.41344,18.12422 14.1467,25.61543 1.06752,10.90618 -0.58211,24.00031 -2.50668,34.46031 -5.66222,30.17037 -17.85445,58.97263 -34.66179,84.60603 -19.8118,30.21137 -45.77876,56.17941 -75.16046,77.10606 -29.60522,21.04946 -62.80957,37.13407 -97.85626,46.76972 -25.8919,7.07906 -52.87799,10.61949 -79.72542,9.17071 -21.64618,-1.18611 -43.26001,-5.69242 -63.09096,-14.5895 -16.71098,-7.47855 -32.07892,-18.20611 -44.21898,-31.96711 -4.77831,-5.40551 -9.05379,-11.26226 -12.74413,-17.46195 -8.97442,6.42385 -7.08202,17.15775 -2.80471,24.44334 8.84988,14.55225 18.99388,28.86843 32.97751,38.54469 16.66962,11.57333 25.05502,15.93684 44.75485,20.57272 24.64522,5.78638 78.46366,5.88065 103.63525,3.7314 32.05263,-2.77717 63.54613,-10.70944 93.5259,-22.28007 24.20158,-9.37771 47.51036,-21.14012 69.21082,-35.3964 19.55992,-12.9123 37.86221,-27.98066 53.0628,-45.88923 12.24165,-14.37328 22.28925,-30.63797 29.41749,-48.13051 9.02681,-22.1307 13.60396,-46.10141 13.12692,-70.0081 -0.41666,-20.73305 -4.80362,-41.5426 -14.00927,-60.19402 -7.26112,-14.78148 -17.64349,-28.03794 -30.37441,-38.49803 -7.2627,-5.99183 -15.7818,-11.15889 -24.35203,-13.82239 z"
       inkscape:path-effect="#path-effect200" /></g></svg>
