<svg version="1.1" viewBox="0 0 1e3 1e3" xmlns="http://www.w3.org/2000/svg">
	<defs>
		<mask id="mask69" maskUnits="userSpaceOnUse">
			<path d="m279.66 821.29c-72.901-2.4155-128.94-31.386-157.62-81.48-1.9044-3.3263-7.0875-12.255-11.518-19.842-20.686-35.422-27.035-55.841-27.022-86.911 0.017407-42.475 13.054-80.715 44.329-130.02 63.298-99.8 133.4-221.2 188.34-326.16 12.328-23.553 18.689-34.005 29.26-48.083 34.685-46.191 79.737-73.267 126.13-75.807 8.8488-0.48437 53.272-0.3178 59.937 0.22475 56.746 4.6196 109.55 44.612 144.99 109.8 1.5894 2.924 7.6707 14.38 13.514 25.458 55.724 105.64 128.02 230.14 188.41 324.46 38.953 60.839 48.61 128.66 25.654 180.18-4.792 10.754-27.694 50.45-34.631 60.028-32.967 45.512-97.112 71.548-167.89 68.146-108.35-5.2081-258.26-5.5504-379.76-0.86735-24.95 0.96163-33.813 1.1446-42.114 0.86956zm231.08-246.21c11.989-1.6306 23.029-5.1978 29.067-9.3924 17.23-11.969 29.774-30.25 34.773-50.679 1.269-5.1857 1.7938-8.619 2.4075-15.747 0.34612-4.0206-2.4323-16.712-5.2914-24.17-7.867-20.521-22.91-37.673-38.754-44.186-22.799-9.3718-49.545-8.4671-71.218 2.4092-7.9064 3.9676-19.713 16.179-26.347 27.25-7.7508 12.935-13.053 30.398-12.248 40.34 2.1494 26.54 16.093 50.578 37.934 65.395 6.3471 4.3059 19.627 8.0378 32.831 9.2262 2.5342 0.22807 14.151-0.0795 16.846-0.44602z" fill="#fff"/>
		</mask>
		<mask id="mask70" maskUnits="userSpaceOnUse">
			<path d="m279.66 821.29c-72.901-2.4155-128.94-31.386-157.62-81.48-1.9044-3.3263-7.0875-12.255-11.518-19.842-20.686-35.422-27.035-55.841-27.022-86.911 0.017407-42.475 13.054-80.715 44.329-130.02 63.298-99.8 133.4-221.2 188.34-326.16 12.328-23.553 18.689-34.005 29.26-48.083 34.685-46.191 79.737-73.267 126.13-75.807 8.8488-0.48437 53.272-0.3178 59.937 0.22475 56.746 4.6196 109.55 44.612 144.99 109.8 1.5894 2.924 7.6707 14.38 13.514 25.458 55.724 105.64 128.02 230.14 188.41 324.46 38.953 60.839 48.61 128.66 25.654 180.18-4.792 10.754-27.694 50.45-34.631 60.028-32.967 45.512-97.112 71.548-167.89 68.146-108.35-5.2081-258.26-5.5504-379.76-0.86735-24.95 0.96163-33.813 1.1446-42.114 0.86956zm231.08-246.21c11.989-1.6306 23.029-5.1978 29.067-9.3924 17.23-11.969 29.774-30.25 34.773-50.679 1.269-5.1857 1.7938-8.619 2.4075-15.747 0.34612-4.0206-2.4323-16.712-5.2914-24.17-7.867-20.521-22.91-37.673-38.754-44.186-22.799-9.3718-49.545-8.4671-71.218 2.4092-7.9064 3.9676-19.713 16.179-26.347 27.25-7.7508 12.935-13.053 30.398-12.248 40.34 2.1494 26.54 16.093 50.578 37.934 65.395 6.3471 4.3059 19.627 8.0378 32.831 9.2262 2.5342 0.22807 14.151-0.0795 16.846-0.44602z" fill="#fff"/>
		</mask>
		<filter id="filter70" x="-.34868" y="-.35517" width="1.6974" height="1.7098" color-interpolation-filters="sRGB">
			<feGaussianBlur stdDeviation="93.189974"/>
		</filter>
		<mask id="mask69-40-4" maskUnits="userSpaceOnUse">
			<path d="m279.66 821.29c-72.901-2.4155-128.94-31.386-157.62-81.48-1.9044-3.3263-7.0875-12.255-11.518-19.842-20.686-35.422-27.035-55.841-27.022-86.911 0.017407-42.475 13.054-80.715 44.329-130.02 63.298-99.8 133.4-221.2 188.34-326.16 12.328-23.553 18.689-34.005 29.26-48.083 34.685-46.191 79.737-73.267 126.13-75.807 8.8488-0.48437 53.272-0.3178 59.937 0.22475 56.746 4.6196 109.55 44.612 144.99 109.8 1.5894 2.924 7.6707 14.38 13.514 25.458 55.724 105.64 128.02 230.14 188.41 324.46 38.953 60.839 48.61 128.66 25.654 180.18-4.792 10.754-27.694 50.45-34.631 60.028-32.967 45.512-97.112 71.548-167.89 68.146-108.35-5.2081-258.26-5.5504-379.76-0.86735-24.95 0.96163-33.813 1.1446-42.114 0.86956zm231.08-246.21c11.989-1.6306 23.029-5.1978 29.067-9.3924 17.23-11.969 29.774-30.25 34.773-50.679 1.269-5.1857 1.7938-8.619 2.4075-15.747 0.34612-4.0206-2.4323-16.712-5.2914-24.17-7.867-20.521-22.91-37.673-38.754-44.186-22.799-9.3718-49.545-8.4671-71.218 2.4092-7.9064 3.9676-19.713 16.179-26.347 27.25-7.7508 12.935-13.053 30.398-12.248 40.34 2.1494 26.54 16.093 50.578 37.934 65.395 6.3471 4.3059 19.627 8.0378 32.831 9.2262 2.5342 0.22807 14.151-0.0795 16.846-0.44602z" fill="#fff"/>
		</mask>
		<filter id="filter70-2-9" x="-.17021" y="-.16902" width="1.3404" height="1.338" color-interpolation-filters="sRGB">
			<feGaussianBlur stdDeviation="32.575276"/>
		</filter>
	</defs>
	<rect width="1e3" height="1e3" fill="#1e1e1e"/>
	<g transform="matrix(.82963 0 0 .82963 85.259 112.88)" mask="url(#mask70)">
		<path d="m580.6 395.69c-44.351 1.3063-90.665 10.06-127.43 36.249-11.625 27.346 43.242-15.15 64.004 0.36074 67.024 17.26 93.961 97.008 83.66 159.6-10.447 90.632-86.352 156.74-166.12 190.72-43.005 19.653-89.964 29.378-136.6 33.861-19.616 17.386 43.306 7.6537 58.266 8.7634 124.46-4.3554 249.03-1.1188 373.42 1.8341 74.401-2.6791 154.42-48.196 169.13-126.09 17.045-92.691-44.167-179.9-114.47-233.79-58.135-44.177-130.3-72.24-203.86-71.512zm-24.682 50.939c-0.93794 9.5368-6.929-3.9717 0 0z" fill="#4d4d00"/>
		<path d="m324.08 158.58c-26.296 28.877-38.844 69.489-60.267 102.74-50.02 92.144-106.13 180.79-159.74 270.79-35.257 62.445-39.108 148.63 12.649 203.35 63.494 64.844 167.16 64.091 247.54 35.919 111.72-37.84 211.54-137.05 219.04-259.19 3.2879-23.32-13.095-35.343-13.304-4.7973-8.6789 58.946-78.677 82.399-130.16 68.119-88.131-20.722-148.12-107.56-152.69-195.64-6.3956-71.512 6.7215-145.16 39.329-209.26-1.1383-2.3384 5.4389-21.083-2.4043-12.018z" fill="#004d4d"/>
		<path d="m499.41 46.748c-80.034 16.257-135.18 87.894-157.32 162.93-37.617 121.33-9.3718 272.29 97.019 350.4 14.331 15.817 50.701 18.11 19.685-2.9528-46.292-36.518-32.798-107.28 4.2191-145.1 62.154-68.494 170.32-76.713 249.86-35.195 65.192 31.014 122.77 79.584 161.39 140.84 30.298 10.878-20.708-50.405-29.106-69.213-62.296-100.34-118.13-204.49-175.03-307.87-36.157-58.259-99.696-101.44-170.72-93.84z" fill="#4d004d"/>
	</g>
	<g transform="matrix(.82963 0 0 .82963 85.259 112.88)" filter="url(#filter70)" mask="url(#mask69)" style="mix-blend-mode:overlay">
		<circle cx="500" cy="500" r="178.57" fill="#fff"/>
		<path d="m562.54 896.58s199.66 6.5076 253.5-13.919c105.28-39.939 88.226-59.357 116.7-116.03m-120.56-519.07s-94.194-176.16-138.81-212.58c-87.228-71.206-95.518-46.727-158.84-43.047m-389.25 363.94s-105.47 169.66-114.7 226.5c-18.052 111.14 7.2919 106.08 42.138 159.08" fill="none" stroke="#fff" stroke-linecap="round" stroke-linejoin="round" stroke-width="200" style="font-variation-settings:normal"/>
	</g>
	<g transform="matrix(.82963 0 0 .82963 85.259 112.88)" filter="url(#filter70-2-9)" mask="url(#mask69-40-4)" style="mix-blend-mode:overlay">
		<circle cx="500" cy="500" r="92.951" fill="#fff"/>
		<path d="m444.05 949.81s217.82-16.66 277.17-21.032c72.161-5.3162 194.29-31.184 270.85-72.25m-74.543-532.97s-123.34-180.31-156.8-229.52c-40.685-59.835-124.15-152.67-197.99-198.43m-424.3 331.04s-94.484 196.97-120.37 250.55c-31.477 65.152-70.137 183.85-72.852 270.68" fill="none" stroke="#fff" stroke-linecap="round" stroke-linejoin="round" stroke-width="200" style="font-variation-settings:normal"/>
	</g>
	<path d="m317.28 794.4c-60.446-1.9886-106.98-26.043-130.77-67.597-1.5799-2.7596-5.4946-9.3924-8.61-14.739-6.3182-10.845-5.8573-10.17-5.6768-10.01 0.073 0.0645 0.70768 1.0215 1.4104 2.1267 38.102 59.931 133.95 76.387 226.18 38.835 93.699-38.148 157.66-116.92 164.26-202.28 2.0086-25.992-8.2389-49.862-27.816-65.188-2.6717-2.0915-2.4931-2.1938 0.74911-0.27606 64.033 37.877 71.61 144.14 15.345 215.22-49.136 62.068-150.11 106.71-235.08 103.91zm499.25-73.065c52.74-105.74-73.521-259.26-225.41-274.09-53.452-5.2166-113 10.678-135.96 36.29-10.513 11.726-16.465 24.972-18.557 40.359-0.36215 2.6626-0.65658-2.3088-0.32137-6.5027 6.1177-76.546 96.014-131.87 186.53-114.8 66.7 12.579 142.19 64.08 185.17 126.47 40.142 58.276 48.702 120.5 23.431 166.91-2.2084 4.0551-15.375 27.46-16.221 28.255-0.1111 0.10438 0.50296-1.1852 1.3489-2.8813zm-348.05-123.01c-54.933-4.1509-108.9-45.151-133.16-101.17-33.154-76.554-19.883-194.42 30.228-268.48 29.516-43.619 69.522-69.453 111.03-71.701 8.6858-0.47042 35.755-0.57243 30.498-0.0678-95.688 9.184-163.26 135.42-142.2 265.9 10.41 64.498 42.644 119.17 89.936 152.54 23.295 16.438 50.361 19.217 74.404 8.8769 1.5861-0.6821 0.44761 0.46177-2.2022 1.9518-15.63 8.789-38.949 13.629-58.536 12.149z" fill="#fff" stroke-width=".86271"/>
</svg>
