<svg version="1.1" viewBox="0 0 1e3 1e3" xmlns="http://www.w3.org/2000/svg">
	<defs>
		<mask id="mask69" maskUnits="userSpaceOnUse">
			<path
				d="m279.66 821.29c-72.901-2.4155-128.94-31.386-157.62-81.48-1.9044-3.3263-7.0875-12.255-11.518-19.842-20.686-35.422-27.035-55.841-27.022-86.911 0.017407-42.475 13.054-80.715 44.329-130.02 63.298-99.8 133.4-221.2 188.34-326.16 12.328-23.553 18.689-34.005 29.26-48.083 34.685-46.191 79.737-73.267 126.13-75.807 8.8488-0.48437 53.272-0.3178 59.937 0.22475 56.746 4.6196 109.55 44.612 144.99 109.8 1.5894 2.924 7.6707 14.38 13.514 25.458 55.724 105.64 128.02 230.14 188.41 324.46 38.953 60.839 48.61 128.66 25.654 180.18-4.792 10.754-27.694 50.45-34.631 60.028-32.967 45.512-97.112 71.548-167.89 68.146-108.35-5.2081-258.26-5.5504-379.76-0.86735-24.95 0.96163-33.813 1.1446-42.114 0.86956zm231.08-246.21c11.989-1.6306 23.029-5.1978 29.067-9.3924 17.23-11.969 29.774-30.25 34.773-50.679 1.269-5.1857 1.7938-8.619 2.4075-15.747 0.34612-4.0206-2.4323-16.712-5.2914-24.17-7.867-20.521-22.91-37.673-38.754-44.186-22.799-9.3718-49.545-8.4671-71.218 2.4092-7.9064 3.9676-19.713 16.179-26.347 27.25-7.7508 12.935-13.053 30.398-12.248 40.34 2.1494 26.54 16.093 50.578 37.934 65.395 6.3471 4.3059 19.627 8.0378 32.831 9.2262 2.5342 0.22807 14.151-0.0795 16.846-0.44602z"
				fill="#fff" />
		</mask>
		<mask id="mask70" maskUnits="userSpaceOnUse">
			<path
				d="m279.66 821.29c-72.901-2.4155-128.94-31.386-157.62-81.48-1.9044-3.3263-7.0875-12.255-11.518-19.842-20.686-35.422-27.035-55.841-27.022-86.911 0.017407-42.475 13.054-80.715 44.329-130.02 63.298-99.8 133.4-221.2 188.34-326.16 12.328-23.553 18.689-34.005 29.26-48.083 34.685-46.191 79.737-73.267 126.13-75.807 8.8488-0.48437 53.272-0.3178 59.937 0.22475 56.746 4.6196 109.55 44.612 144.99 109.8 1.5894 2.924 7.6707 14.38 13.514 25.458 55.724 105.64 128.02 230.14 188.41 324.46 38.953 60.839 48.61 128.66 25.654 180.18-4.792 10.754-27.694 50.45-34.631 60.028-32.967 45.512-97.112 71.548-167.89 68.146-108.35-5.2081-258.26-5.5504-379.76-0.86735-24.95 0.96163-33.813 1.1446-42.114 0.86956zm231.08-246.21c11.989-1.6306 23.029-5.1978 29.067-9.3924 17.23-11.969 29.774-30.25 34.773-50.679 1.269-5.1857 1.7938-8.619 2.4075-15.747 0.34612-4.0206-2.4323-16.712-5.2914-24.17-7.867-20.521-22.91-37.673-38.754-44.186-22.799-9.3718-49.545-8.4671-71.218 2.4092-7.9064 3.9676-19.713 16.179-26.347 27.25-7.7508 12.935-13.053 30.398-12.248 40.34 2.1494 26.54 16.093 50.578 37.934 65.395 6.3471 4.3059 19.627 8.0378 32.831 9.2262 2.5342 0.22807 14.151-0.0795 16.846-0.44602z"
				fill="#fff" />
		</mask>
		<filter id="filter70" x="-.34868" y="-.35517" width="1.6974" height="1.7098"
			color-interpolation-filters="sRGB">
			<feGaussianBlur stdDeviation="93.189974" />
		</filter>
		<mask id="mask69-40-4" maskUnits="userSpaceOnUse">
			<path
				d="m279.66 821.29c-72.901-2.4155-128.94-31.386-157.62-81.48-1.9044-3.3263-7.0875-12.255-11.518-19.842-20.686-35.422-27.035-55.841-27.022-86.911 0.017407-42.475 13.054-80.715 44.329-130.02 63.298-99.8 133.4-221.2 188.34-326.16 12.328-23.553 18.689-34.005 29.26-48.083 34.685-46.191 79.737-73.267 126.13-75.807 8.8488-0.48437 53.272-0.3178 59.937 0.22475 56.746 4.6196 109.55 44.612 144.99 109.8 1.5894 2.924 7.6707 14.38 13.514 25.458 55.724 105.64 128.02 230.14 188.41 324.46 38.953 60.839 48.61 128.66 25.654 180.18-4.792 10.754-27.694 50.45-34.631 60.028-32.967 45.512-97.112 71.548-167.89 68.146-108.35-5.2081-258.26-5.5504-379.76-0.86735-24.95 0.96163-33.813 1.1446-42.114 0.86956zm231.08-246.21c11.989-1.6306 23.029-5.1978 29.067-9.3924 17.23-11.969 29.774-30.25 34.773-50.679 1.269-5.1857 1.7938-8.619 2.4075-15.747 0.34612-4.0206-2.4323-16.712-5.2914-24.17-7.867-20.521-22.91-37.673-38.754-44.186-22.799-9.3718-49.545-8.4671-71.218 2.4092-7.9064 3.9676-19.713 16.179-26.347 27.25-7.7508 12.935-13.053 30.398-12.248 40.34 2.1494 26.54 16.093 50.578 37.934 65.395 6.3471 4.3059 19.627 8.0378 32.831 9.2262 2.5342 0.22807 14.151-0.0795 16.846-0.44602z"
				fill="#fff" />
		</mask>
		<filter id="filter70-2-9" x="-.17021" y="-.16902" width="1.3404" height="1.338"
			color-interpolation-filters="sRGB">
			<feGaussianBlur stdDeviation="32.575276" />
		</filter>
	</defs>
	<rect width="1e3" height="1e3" fill="#303030" />
	<g transform="matrix(.86271 0 0 .86271 68.719 98.42)" mask="url(#mask70)">
		<path
			d="m580.6 395.69c-44.351 1.3063-90.665 10.06-127.43 36.249-11.625 27.346 43.242-15.15 64.004 0.36074 67.024 17.26 93.961 97.008 83.66 159.6-10.447 90.632-86.352 156.74-166.12 190.72-43.005 19.653-89.964 29.378-136.6 33.861-19.616 17.386 43.306 7.6537 58.266 8.7634 124.46-4.3554 249.03-1.1188 373.42 1.8341 74.401-2.6791 154.42-48.196 169.13-126.09 17.045-92.691-44.167-179.9-114.47-233.79-58.135-44.177-130.3-72.24-203.86-71.512zm-24.682 50.939c-0.93794 9.5368-6.929-3.9717 0 0z"
			fill="#4d4d00" />
		<path
			d="m324.08 158.58c-26.296 28.877-38.844 69.489-60.267 102.74-50.02 92.144-106.13 180.79-159.74 270.79-35.257 62.445-39.108 148.63 12.649 203.35 63.494 64.844 167.16 64.091 247.54 35.919 111.72-37.84 211.54-137.05 219.04-259.19 3.2879-23.32-13.095-35.343-13.304-4.7973-8.6789 58.946-78.677 82.399-130.16 68.119-88.131-20.722-148.12-107.56-152.69-195.64-6.3956-71.512 6.7215-145.16 39.329-209.26-1.1383-2.3384 5.4389-21.083-2.4043-12.018z"
			fill="#004d4d" />
		<path
			d="m499.41 46.748c-80.034 16.257-135.18 87.894-157.32 162.93-37.617 121.33-9.3718 272.29 97.019 350.4 14.331 15.817 50.701 18.11 19.685-2.9528-46.292-36.518-32.798-107.28 4.2191-145.1 62.154-68.494 170.32-76.713 249.86-35.195 65.192 31.014 122.77 79.584 161.39 140.84 30.298 10.878-20.708-50.405-29.106-69.213-62.296-100.34-118.13-204.49-175.03-307.87-36.157-58.259-99.696-101.44-170.72-93.84z"
			fill="#4d004d" />
	</g>
	<g transform="matrix(.86271 0 0 .86271 68.719 98.42)" filter="url(#filter70)"
		mask="url(#mask69)" style="mix-blend-mode:overlay">
		<circle cx="500" cy="500" r="178.57" fill="#fff" />
		<path
			d="m562.54 896.58s199.66 6.5076 253.5-13.919c105.28-39.939 88.226-59.357 116.7-116.03m-120.56-519.07s-94.194-176.16-138.81-212.58c-87.228-71.206-95.518-46.727-158.84-43.047m-389.25 363.94s-105.47 169.66-114.7 226.5c-18.052 111.14 7.2919 106.08 42.138 159.08"
			fill="none" stroke="#fff" stroke-linecap="round" stroke-linejoin="round"
			stroke-width="200" style="font-variation-settings:normal" />
	</g>
	<g transform="matrix(.86271 0 0 .86271 68.719 98.42)" filter="url(#filter70-2-9)"
		mask="url(#mask69-40-4)" style="mix-blend-mode:overlay">
		<circle cx="500" cy="500" r="92.951" fill="#fff" />
		<path
			d="m444.05 949.81s217.82-16.66 277.17-21.032c72.161-5.3162 194.29-31.184 270.85-72.25m-74.543-532.97s-123.34-180.31-156.8-229.52c-40.685-59.835-124.15-152.67-197.99-198.43m-424.3 331.04s-94.484 196.97-120.37 250.55c-31.477 65.152-70.137 183.85-72.852 270.68"
			fill="none" stroke="#fff" stroke-linecap="round" stroke-linejoin="round"
			stroke-width="200" style="font-variation-settings:normal" />
	</g>
	<path
		d="m309.99 807.11c-62.856-2.0679-111.25-27.081-135.98-70.292-1.6429-2.8696-5.7137-9.7669-8.9533-15.327-6.5701-11.277-6.0908-10.575-5.9031-10.409 0.0759 0.0671 0.7359 1.0622 1.4666 2.2115 39.621 62.32 139.29 79.433 235.2 40.383 97.435-39.669 163.95-121.58 170.81-210.34 2.0887-27.028-8.5674-51.85-28.925-67.787-2.7782-2.1749-2.5925-2.2813 0.77898-0.28706 66.586 39.387 74.465 149.89 15.957 223.8-51.095 64.543-156.1 110.96-244.45 108.05zm519.16-75.978c54.843-109.96-76.452-269.6-234.4-285.02-55.583-5.4246-117.51 11.104-141.38 37.737-10.932 12.194-17.121 25.968-19.297 41.968-0.37659 2.7688-0.68275-2.4008-0.33418-6.762 6.3616-79.598 99.842-137.13 193.97-119.38 69.359 13.081 147.86 66.635 192.55 131.51 41.742 60.599 50.644 125.3 24.365 173.56-2.2965 4.2168-15.988 28.555-16.868 29.382-0.11553 0.10854 0.52301-1.2324 1.4027-2.9962zm-361.93-127.91c-57.123-4.3164-113.24-46.951-138.47-105.2-34.476-79.606-20.676-202.17 31.433-279.18 30.693-45.358 72.294-72.222 115.46-74.56 9.0321-0.48917 37.181-0.59525 31.714-0.0705-99.503 9.5502-169.77 140.82-147.87 276.5 10.825 67.07 44.344 123.92 93.522 158.62 24.224 17.093 52.369 19.983 77.371 9.2308 1.6493-0.7093 0.46545 0.48018-2.29 2.0296-16.253 9.1394-40.502 14.172-60.87 12.633z"
		fill="#fff" stroke-width=".86271" />
</svg>