<svg version="1.1" viewBox="0 0 730 730" xmlns="http://www.w3.org/2000/svg">
	<defs>
		<filter id="filter8" x="-.34226" y="-.32413" width="1.6845" height="1.6483" color-interpolation-filters="sRGB">
			<feGaussianBlur stdDeviation="80.111876"/>
		</filter>
		<filter id="filter5" x="-.11512" y="-.11697" width="1.2302" height="1.2339" color-interpolation-filters="sRGB">
			<feGaussianBlur stdDeviation="25.964989"/>
		</filter>
		<mask id="mask1" maskUnits="userSpaceOnUse">
			<path d="m372.68 32.02c-7.49 3e-3 -14.981-0.0349-22.469 0.0195-17.028 0.38807-33.875 4.6831-49.246 11.955-18.358 8.6497-34.63 21.328-48.494 36.07-14.751 15.7-26.892 33.696-36.791 52.806h-2e-3c-0.1 0.194-0.2 0.387-0.299 0.58-0.109 0.212-0.218 0.425-0.326 0.637-29.523 57.501-60.342 114.35-93.01 170.12-26.636 45.553-54.478 90.392-83.065 134.74-13.77 21.478-24.668 44.997-30.504 69.899-4.7491 20.329-5.9808 41.665-2.0489 62.24 2.624 13.864 7.9794 27.121 15.012 39.361 1.721 2.996 3.4916 5.959 5.4062 8.823-1.5527-2.323-3.0455-4.69-4.4727-7.1 3.7449 6.48 7.4554 12.984 11.244 19.437 8.8499 14.553 20.993 26.994 34.976 36.67 16.669 11.574 35.784 19.327 55.484 23.963 20.972 4.924 42.627 6.439 64.127 5.457l2e-3 2e-3c65.012-3.225 130.11-4.985 195.2-4.58 52.768 0.291 105.52 1.985 158.22 4.565 25.485 1.186 51.303-1.137 75.787-8.534 19.98-6.051 39.072-15.653 54.924-29.345 10.465-9.008 19.172-19.959 26.179-31.867 0.026-0.047 0.053-0.093 0.078-0.139 0.434-0.754 0.867-1.507 1.301-2.26 3.756-6.512 7.549-13.004 11.26-19.541 8.178-14.94 12.881-31.679 14.27-48.627 1.687-20.223-1.156-40.653-6.991-60.031-6.221-20.624-15.737-40.137-27.338-58.266l2e-3 -2e-3c-35.299-54.689-69.371-110.18-101.57-166.76-26.132-45.844-51.043-92.376-75.16-139.31-11.715-22.664-26.636-43.86-45.283-61.365-15.231-14.277-33.093-26.012-52.877-32.894-12.434-4.3499-25.597-6.4275-38.778-6.709-0.718-0.0153-1.437-5e-3 -2.156-0.01-3.675-0.024-7.348 0.06993-11.004 0.31053 2.792-0.1838 5.595-0.2932 8.401-0.3242zm-7.03 326.46c4.072 0.031 8.141 0.403 12.153 1.127 3.898 0.69 7.659 1.755 11.289 3.138l4e-3 2e-3c13.698 7.058 25.988 16.715 33.211 30.344 4.663 8.733 7.555 18.383 8.552 28.227v2e-3l-2e-3 2e-3v4e-3c-0.522 16.288-6.646 32.345-17.175 44.793-2.546 3.03-5.349 5.754-8.362 8.205-12.962 8.335-27.47 14.153-42.886 13.594-9.893-0.328-19.697-2.65-28.719-6.708l-8e-3 -6e-3c-13.845-8.596-24.69-21.927-30.205-37.269-1.352-3.72-2.31-7.51-2.926-11.344-0.737-15.393 1.479-30.866 9.672-43.937 5.231-8.405 12.144-15.736 20.17-21.522l6e-3 -2e-3c10.775-5.769 23.012-8.744 35.226-8.65z" fill="#ffffff"/>
		</mask>
	</defs>
	<g mask="url(#mask1)">
		<path d="m446.55 323.75c33.486-1.531 71.519 3.332 111.15 20.821 81.162 39.38 158.95 124.91 160.91 219.01 0.519 18.168-6.966 55.17-6.966 55.17s1.442 25.585-11.87 37.041c-15.852 13.693-53.179 47.828-73.159 53.88-24.483 7.396-53.483 6.891-78.969 5.704-52.703-2.58-112.47 3.549-165.24 3.258-65.095-0.405-186.82-4.346-247.24-18.268-4.1-7.633 65.917-11.118 135.89-28.392 55.865-19.427 90.443-35.765 128.3-85.088 25.861-29.62 43.919-74.16 47.215-107.91-0.033-41.162-3.748-67.872-37.06-97.134-9.795-7.978-21.913-14.9-34.361-17.103-16.045-2.894-34.603 2.483-48.97 10.175-20.107 3.24 11.961-23.132 14.6-24.602 16.903-9.2 49.957-24.009 105.77-26.561z" fill="#464600"/>
		<path d="m379.63 26.918c-4.394-0.0938-15.598 1.4257-15.598 1.4257s-38.812 8.9301-54.287 18.463c-80.51 48.743-115.69 158.88-109.22 248.86 12.454 114.84 96.986 174.94 123.26 191 2.593 1.55 29.407-1.052 24.424-4.961-13.845-8.596-33.356-23.664-38.872-39.007-4.316-11.881-0.986-35.096 1.026-47.568 8.686-43.48 26.498-49.821 62.129-70.43 30.876-14.02 78.476-20.653 117.06-13.067 61.642 8.122 93.08 29.898 137.84 68.565 49.945 51.96 82.91 97.626 87.47 90.259-35.299-54.689-71.201-143.86-103.4-200.43-26.132-45.844-59.351-98.033-83.468-144.97-11.716-22.664-28.404-45.628-47.051-63.133-15.231-14.277-42.062-21.477-61.846-28.359-12.434-4.3498-26.285-6.3649-39.465-6.6464z" fill="#460046"/>
		<path d="m226.11 106.71c-29.712 57.915-83.54 133.02-116.44 189.2-26.636 45.553-61.019 93.573-89.605 137.93-13.77 21.478-23.784 51.714-29.62 76.616-4.749 20.329 0.0296 46.262 3.9616 66.836 3.2661 17.257 16.691 31.498 26.428 46.062 10.776 14.682 29.812 27.3 45.805 35.935 82.467 45.352 195.44 20.754 270.12-29.844 93.229-68.207 100.71-170.58 101.49-201.36 0.046-3.021-13.395-25.569-14.288-19.299-0.522 16.289-2.581 41.361-13.11 53.809-8.131 9.679-16.058 18.356-27.865 22.85-41.998 14.217-71.399 1.111-107.06-19.442-27.58-19.729-57.123-57.637-69.844-94.843-23.788-57.444-20.647-95.559-9.539-153.65 20.026-69.234 38.225-110.52 29.564-110.79z" fill="#004646"/>
		<path d="m370.88 472.24c-13.696 0.57-40.311-14.106-38.255-39.894m-411.08 214.83c7.5862-77.25 6.3426-133.24 42.607-195.42 35.085-60.152 39.241-124.51 27.544-193.31m407.61 144.16c7.342 11.576 7.939 41.963-15.422 53.076m391.59 248.59c-70.694 32.056-118.56 61.128-190.54 60.809-69.635-0.308-127.45 28.273-181.18 72.799m-78.96-425.08c6.354-12.146 32.371-27.856 53.677-13.182m19.49-463.42c63.108 45.195 112.22 72.113 147.93 134.61 34.551 60.46 88.212 96.241 153.64 120.51" fill="none" filter="url(#filter8)" mask="none" opacity=".6" stroke="#ffffff" stroke-linecap="round" stroke-width="200" style="mix-blend-mode:color-dodge"/>
		<path d="m386.18 426.84c-5.267 19.259-21.187 23.154-41.138 13.706m-360.72 315.37s-52.999-227.38-17.292-295.41c62.165-118.45 124.08-176.38 118.21-310.08m272.29 252.65c19.312-5.069 30.645 6.771 32.438 28.773m453.48 154.71s-170.41 159.59-247.19 162.68c-133.66 5.389-214.79-19.264-327.65 52.665m82.661-362.14c-14.046-14.19-9.459-29.925 8.698-42.479m-92.757-470.08s223.41 67.788 264.48 132.73c71.498 113.06 90.71 195.64 209.43 257.42" fill="none" filter="url(#filter5)" mask="none" stroke="#ffffff" stroke-linecap="round" stroke-width="80" style="mix-blend-mode:color-dodge"/>
		<path d="m389.09 362.75c4.817 10.859 20.423 19.587 27.647 33.217 5.7 10.674 13.413 18.124 14.146 25.616 1.068 10.906-0.582 24-2.506 34.46-5.663 30.17-17.855 58.973-34.662 84.606-19.812 30.211-45.779 56.179-75.161 77.106-29.605 21.049-62.809 37.134-97.856 46.77-25.892 7.079-52.878 10.619-79.725 9.17-21.646-1.186-43.26-5.692-63.091-14.589-16.711-7.479-32.079-18.206-44.219-31.967-4.7783-5.406-9.0538-11.262-12.744-17.462-8.9745 6.424-7.082 17.158-2.8047 24.443 8.8498 14.552 18.994 28.869 32.978 38.545 16.67 11.573 25.055 15.937 44.754 20.573 24.646 5.786 78.464 5.88 103.64 3.731 32.052-2.777 63.546-10.709 93.525-22.28 24.202-9.378 47.511-21.14 69.211-35.396 19.56-12.913 37.862-27.981 53.063-45.89 12.242-14.373 22.289-30.638 29.418-48.13 9.026-22.131 13.604-46.102 13.127-70.008-0.417-20.733-4.804-41.543-14.01-60.194-7.261-14.782-17.643-28.038-30.374-38.498-7.263-5.992-15.782-11.159-24.352-13.823zm-88.514 69.844c6.995-9.601 6.75-27.48 14.943-40.551 6.394-10.273 8.989-20.679 15.11-25.059 8.912-6.378 21.076-11.496 31.097-15.06 28.96-10.181 59.999-14.023 90.602-12.285 36.07 2.052 71.542 11.556 104.36 26.538 33.032 15.114 63.564 35.828 89.432 61.361 19.077 18.884 35.636 40.484 47.805 64.459 9.796 19.339 16.7 40.311 18.91 61.933 1.879 18.212 0.273 36.885-5.575 54.279-2.292 6.841-5.226 13.472-8.75 19.767 10.05 4.561 18.4-2.445 22.571-9.792 8.178-14.941 15.504-30.884 16.892-47.832 1.688-20.223 1.274-29.667-4.561-49.045-7.311-24.237-34.139-70.892-48.586-91.617-18.432-26.369-41.048-49.677-66.058-69.855-20.222-16.271-42.063-30.576-65.26-42.241-20.962-10.483-43.163-18.799-66.272-23.009-18.569-3.415-37.678-3.984-56.391-1.411-23.68 3.248-46.727 11.27-67.193 23.636-17.747 10.727-33.575 24.931-45.125 42.229-9.17 13.68-15.459 29.299-18.153 45.555-1.557 9.285-1.773 19.246 0.206 28zm104.74 41.734c-11.812-1.258-27.174 7.894-42.59 7.334-12.093-0.401-22.402 2.554-29.257-0.556-9.978-4.529-20.493-12.505-28.59-19.401-23.297-19.989-42.144-44.949-55.94-72.321-16.258-32.264-25.763-67.736-29.195-103.64-3.427-36.164-0.755-72.962 8.424-108.13 6.815-25.963 17.242-51.103 31.921-73.63 11.85-18.153 26.559-34.618 44.18-47.343 14.832-10.733 31.806-18.678 49.794-22.311 7.07-1.4354 14.28-2.2097 21.494-2.3058-1.076-10.984-11.318-14.712-19.766-14.651-17.027 0.3881-34.498 2.015-49.869 9.287-18.358 8.6497-26.33 13.73-40.194 28.472-17.334 18.45-44.325 65.011-55.049 87.885-13.622 29.147-22.499 60.387-27.468 92.136-3.98 25.648-5.448 51.715-3.951 77.636 1.402 23.396 5.3 46.78 13.209 68.898 6.327 17.789 15.389 34.622 26.974 49.542 14.652 18.883 33.123 34.832 54.065 46.372 18.164 10.006 38.379 16.611 59.134 17.965 16.432 1.102 33.104-1.261 48.528-7.056 8.82-3.294 17.555-8.088 24.146-14.178z" fill="#ffffff"/>
	</g>
</svg>
