<svg version="1.1" viewBox="0 0 1024 1024" xmlns="http://www.w3.org/2000/svg">
	<defs>
		<filter id="filter8" x="-.34226" y="-.32413" width="1.6845" height="1.6483" color-interpolation-filters="sRGB">
			<feGaussianBlur stdDeviation="80.111876"/>
		</filter>
		<filter id="filter5" x="-.11512" y="-.11697" width="1.2302" height="1.2339" color-interpolation-filters="sRGB">
			<feGaussianBlur stdDeviation="25.964989"/>
		</filter>
		<mask id="mask1" maskUnits="userSpaceOnUse">
			<path d="m519.68 120.8c-7.4891 3e-3 -14.981-0.0349-22.469 0.0195-17.028 0.3881-33.874 4.683-49.246 11.955-18.358 8.6496-34.629 21.328-48.494 36.07-14.75 15.7-26.891 33.696-36.791 52.807h-2e-3c-0.0993 0.19352-0.19952 0.38658-0.29883 0.58008-0.10911 0.21187-0.21762 0.42457-0.32617 0.63672-29.523 57.501-60.342 114.35-93.01 170.12-26.636 45.553-54.478 90.392-83.064 134.74-13.77 21.478-24.668 44.997-30.504 69.898-4.749 20.329-5.9808 41.666-2.0488 62.24 2.624 13.864 7.9793 27.121 15.012 39.361 1.7211 2.9958 3.4916 5.9587 5.4062 8.8223-1.5527-2.3223-3.0455-4.6895-4.4727-7.0996 3.7449 6.4804 7.4553 12.984 11.244 19.438 8.8499 14.552 20.993 26.994 34.977 36.67 16.67 11.573 35.785 19.327 55.484 23.963 20.972 4.9239 42.627 6.439 64.127 5.457l2e-3 2e-3c65.012-3.2257 130.11-4.985 195.2-4.5801 52.768 0.29068 105.52 1.9844 158.22 4.5645 25.486 1.1865 51.304-1.1366 75.787-8.5332 19.98-6.0518 39.072-15.653 54.924-29.346 10.466-9.0074 19.172-19.959 26.18-31.867 0.0258-0.0461 0.0524-0.0925 0.0781-0.13867 0.43316-0.75363 0.86644-1.5067 1.3008-2.2598 3.7559-6.512 7.549-13.004 11.26-19.541 8.1777-14.94 12.881-31.679 14.27-48.627 1.688-20.223-1.1551-40.653-6.9902-60.031-6.2217-20.624-15.737-40.137-27.338-58.266l2e-3 -2e-3c-35.3-54.69-69.371-110.19-101.57-166.76-26.132-45.844-51.043-92.376-75.16-139.31-11.715-22.664-26.636-43.86-45.283-61.365-15.231-14.277-33.093-26.012-52.877-32.895-12.433-4.3498-25.597-6.4275-38.777-6.709-0.71875-0.0153-1.4375-5e-3 -2.1562-0.01-3.6748-0.024-7.3485 0.0699-11.004 0.31055 2.7921-0.18386 5.5946-0.29322 8.4004-0.32422zm-7.0293 326.46c4.0714 0.0313 8.1412 0.40333 12.152 1.127 3.898 0.68979 7.6597 1.7549 11.289 3.1387 8e-4 4.1e-4 3e-3 2e-3 4e-3 2e-3 13.698 7.058 25.988 16.714 33.211 30.344 4.6633 8.7324 7.5554 18.383 8.5527 28.227v2e-3l-2e-3 2e-3v4e-3c-0.52208 16.288-6.6468 32.345-17.176 44.793-2.5461 3.0305-5.3491 5.7543-8.3613 8.2051-12.962 8.3354-27.471 14.153-42.887 13.594-9.8929-0.32765-19.696-2.6498-28.719-6.707-3e-3 -2e-3 -5e-3 -4e-3 -8e-3 -6e-3 -13.845-8.5963-24.689-21.927-30.205-37.27-1.3513-3.7198-2.3094-7.5099-2.9258-11.344-0.73743-15.394 1.4791-30.867 9.6719-43.938 5.2308-8.4046 12.144-15.736 20.17-21.521 2e-3 -8.7e-4 4e-3 -1e-3 6e-3 -2e-3 10.775-5.7691 23.012-8.7443 35.227-8.6504z" fill="#ffffff"/>
		</mask>
	</defs>
	<rect width="1024" height="1024" fill="#161616" stroke-linecap="round" stroke-width="80"/>
	<g mask="url(#mask1)">
		<path d="m593.55 412.53c33.486-1.531 71.519 3.3319 111.15 20.82 81.162 39.38 158.95 124.91 160.91 219.01 0.51839 18.168-6.966 55.17-6.966 55.17s1.4416 25.584-11.87 37.041c-15.852 13.692-53.179 47.827-73.159 53.879-24.483 7.3966-53.484 6.8913-78.969 5.7048-52.704-2.58-112.47 3.5486-165.24 3.2579-65.095-0.40487-186.82-4.3466-247.24-18.268-4.0998-7.6328 65.917-11.118 135.89-28.392 55.864-19.427 90.443-35.765 128.3-85.088 25.861-29.62 43.918-74.161 47.215-107.91-0.0328-41.162-3.748-67.872-37.06-97.134-9.7954-7.9779-21.914-14.9-34.361-17.103-16.045-2.8945-34.603 2.483-48.97 10.175-20.107 3.2401 11.961-23.132 14.6-24.602 16.903-9.1998 49.957-24.009 105.77-26.561z" fill="#464600"/>
		<path d="m526.63 115.7c-4.3934-0.0938-15.598 1.4258-15.598 1.4258s-38.813 8.9301-54.287 18.463c-80.51 48.743-115.69 158.88-109.21 248.86 12.454 114.84 96.986 174.94 123.26 191 2.5929 1.5502 29.407-1.0521 24.424-4.9609-13.845-8.5963-33.356-23.665-38.871-39.007-4.3162-11.881-0.98631-35.096 1.025-47.568 8.6862-43.48 26.499-49.822 62.13-70.431 30.876-14.02 78.476-20.653 117.06-13.066 61.642 8.1214 93.08 29.898 137.84 68.564 49.945 51.96 82.91 97.627 87.471 90.26-35.3-54.69-71.201-143.86-103.4-200.43-26.132-45.844-59.351-98.033-83.469-144.97-11.715-22.664-28.404-45.628-47.051-63.133-15.231-14.277-42.062-21.477-61.846-28.359-12.433-4.3498-26.285-6.365-39.465-6.6465z" fill="#460046"/>
		<path d="m373.11 195.49c-29.713 57.915-83.541 133.02-116.44 189.2-26.636 45.553-61.019 93.574-89.605 137.93-13.77 21.478-23.784 51.714-29.62 76.616-4.749 20.329 0.0296 46.262 3.9616 66.836 3.2662 17.257 16.691 31.498 26.428 46.062 10.776 14.682 29.812 27.299 45.805 35.934 82.468 45.352 195.44 20.754 270.12-29.844 93.23-68.207 100.71-170.58 101.49-201.36 0.046-3.0206-13.394-25.569-14.288-19.298-0.52208 16.288-2.5809 41.361-13.11 53.809-8.1315 9.6787-16.058 18.356-27.865 22.85-41.998 14.218-71.399 1.1112-107.06-19.441-27.58-19.73-57.123-57.637-69.844-94.844-23.788-57.444-20.647-95.559-9.5391-153.65 20.026-69.234 38.225-110.52 29.565-110.79z" fill="#004646"/>
		<path transform="translate(0,6)" d="m517.88 555.02c-13.696 0.57002-40.31-14.106-38.255-39.894m-411.08 214.83c7.5863-77.25 6.3427-133.24 42.607-195.42 35.085-60.152 39.241-124.51 27.544-193.31m407.61 144.16c7.3417 11.576 7.9388 41.963-15.422 53.077m391.59 248.59c-70.694 32.055-118.56 61.128-190.54 60.809-69.636-0.30844-127.45 28.273-181.18 72.799m-78.961-425.08c6.3544-12.146 32.372-27.857 53.677-13.182m19.491-463.42c63.108 45.195 112.22 72.113 147.93 134.61 34.551 60.461 88.211 96.241 153.64 120.51" fill="none" filter="url(#filter8)" mask="none" opacity=".6" stroke="#ffffff" stroke-linecap="round" stroke-width="200" style="mix-blend-mode:color-dodge"/>
		<path d="m533.18 515.61c-5.2662 19.259-21.187 23.154-41.137 13.706m-360.72 315.37s-52.999-227.37-17.292-295.41c62.165-118.45 124.08-176.38 118.21-310.08m272.29 252.65c19.312-5.0689 30.645 6.7711 32.439 28.773m453.48 154.71s-170.41 159.59-247.19 162.68c-133.66 5.3886-214.79-19.264-327.65 52.665m82.66-362.14c-14.046-14.19-9.4587-29.925 8.6987-42.479m-92.757-470.08s223.41 67.789 264.48 132.73c71.498 113.06 90.71 195.64 209.43 257.42" fill="none" filter="url(#filter5)" mask="none" stroke="#ffffff" stroke-linecap="round" stroke-width="80" style="mix-blend-mode:color-dodge"/>
		<path d="m536.09 451.53c4.8169 10.859 20.424 19.586 27.647 33.217 5.7 10.674 13.413 18.124 14.147 25.615 1.0675 10.906-0.58211 24-2.5067 34.46-5.6622 30.17-17.854 58.973-34.662 84.606-19.812 30.211-45.779 56.179-75.16 77.106-29.605 21.049-62.81 37.134-97.856 46.77-25.892 7.0791-52.878 10.619-79.725 9.1707-21.646-1.1861-43.26-5.6924-63.091-14.59-16.711-7.4786-32.079-18.206-44.219-31.967-4.7783-5.4055-9.0538-11.262-12.744-17.462-8.9744 6.4238-7.082 17.158-2.8047 24.443 8.8499 14.552 18.994 28.868 32.978 38.545 16.67 11.573 25.055 15.937 44.755 20.573 24.645 5.7864 78.464 5.8806 103.64 3.7314 32.053-2.7772 63.546-10.709 93.526-22.28 24.202-9.3777 47.51-21.14 69.211-35.396 19.56-12.912 37.862-27.981 53.063-45.889 12.242-14.373 22.289-30.638 29.417-48.131 9.0268-22.131 13.604-46.101 13.127-70.008-0.41666-20.733-4.8036-41.543-14.009-60.194-7.2611-14.781-17.643-28.038-30.374-38.498-7.2627-5.9918-15.782-11.159-24.352-13.822zm-88.514 69.844c6.9956-9.601 6.7504-27.48 14.943-40.551 6.3937-10.273 8.9893-20.678 15.11-25.059 8.9113-6.3776 21.076-11.496 31.097-15.059 28.959-10.182 59.999-14.024 90.602-12.285 36.07 2.0518 71.542 11.556 104.36 26.538 33.032 15.114 63.564 35.828 89.432 61.361 19.077 18.884 35.636 40.484 47.805 64.459 9.7959 19.339 16.7 40.31 18.911 61.933 1.8789 18.211 0.27251 36.884-5.5748 54.278-2.2922 6.8409-5.2265 13.472-8.7504 19.768 10.05 4.5602 18.4-2.4457 22.571-9.7927 8.1777-14.94 15.504-30.883 16.892-47.832 1.688-20.223 1.2742-29.667-4.5609-49.045-7.3115-24.237-34.139-70.892-48.586-91.616-18.431-26.37-41.048-49.678-66.058-69.856-20.222-16.27-42.063-30.575-65.26-42.24-20.962-10.483-43.163-18.799-66.273-23.009-18.568-3.4149-37.678-3.9841-56.391-1.411-23.679 3.2479-46.727 11.269-67.192 23.636-17.747 10.727-33.575 24.931-45.125 42.229-9.1706 13.679-15.46 29.299-18.153 45.554-1.5577 9.2856-1.773 19.247 0.20547 28.001zm104.74 41.733c-11.812-1.2579-27.174 7.8942-42.59 7.3344-12.094-0.40053-22.403 2.5543-29.257-0.55632-9.9788-4.5286-20.494-12.504-28.59-19.401-23.297-19.989-42.145-44.949-55.94-72.321-16.258-32.263-25.763-67.735-29.196-103.64-3.4268-36.164-0.75427-72.962 8.4244-108.13 6.8153-25.963 17.242-51.103 31.921-73.63 11.85-18.153 26.56-34.618 44.18-47.344 14.832-10.733 31.806-18.678 49.794-22.311 7.0705-1.4354 14.28-2.2097 21.495-2.3058-1.076-10.984-11.318-14.712-19.766-14.651-17.028 0.3881-34.498 2.015-49.869 9.287-18.358 8.6496-26.329 13.73-40.194 28.472-17.334 18.45-44.325 65.011-55.049 87.885-13.621 29.147-22.498 60.387-27.468 92.136-3.9794 25.648-5.4473 51.715-3.9512 77.637 1.4024 23.396 5.3008 46.78 13.21 68.898 6.3268 17.788 15.389 34.622 26.973 49.542 14.652 18.883 33.123 34.832 54.065 46.372 18.164 10.006 38.379 16.611 59.134 17.965 16.432 1.1024 33.103-1.2607 48.527-7.056 8.8204-3.2938 17.555-8.088 24.147-14.178z" fill="#ffffff"/>
	</g>
</svg>
