<svg width="1e3" height="1e3" version="1.1" viewBox="0 0 1e3 1e3" xmlns="http://www.w3.org/2000/svg">
	<defs>
		<mask id="mask69" maskUnits="userSpaceOnUse">
			<path d="m279.6631 821.2919c-72.90064-2.41552-128.9443-31.38569-157.6247-81.47954-1.90439-3.32626-7.08749-12.25503-11.51801-19.8417-20.68604-35.42213-27.03471-55.84138-27.02197-86.91092 0.017407-42.47526 13.05429-80.71495 44.32853-130.0241 63.2982-99.80035 133.4013-221.2031 188.336-326.1558 12.32814-23.55288 18.68861-34.00515 29.25989-48.08328 34.6847-46.1908 79.73728-73.2675 126.1347-75.80723 8.84885-0.484374 53.27198-0.317798 59.93652 0.224747 56.74586 4.619556 109.5538 44.6119 144.9913 109.8045 1.58943 2.924 7.67069 14.38008 13.5139 25.45796 55.72383 105.6443 128.0163 230.1418 188.4064 324.4612 38.95341 60.83884 48.60989 128.6602 25.65387 180.1775-4.79195 10.75397-27.6936 50.45044-34.63147 60.02833-32.96715 45.51182-97.11222 71.54814-167.8901 68.14617-108.3534-5.20806-258.2553-5.55043-379.7608-0.86735-24.95011 0.96163-33.81279 1.14463-42.11425 0.86956zm231.0791-246.2057c11.98911-1.63064 23.02887-5.19785 29.06743-9.39237 17.23048-11.96868 29.77405-30.24996 34.77318-50.67924 1.26896-5.18567 1.79385-8.61897 2.40748-15.74707 0.34612-4.02058-2.43234-16.71202-5.29137-24.16992-7.86702-20.52145-22.91002-37.67261-38.75448-44.1856-22.79925-9.3718-49.54454-8.46706-71.21798 2.40918-7.90636 3.9676-19.7134 16.1792-26.34726 27.25005-7.75078 12.9348-13.05295 30.39839-12.24779 40.34014 2.14944 26.54015 16.093 50.57759 37.93391 65.39466 6.34707 4.30591 19.627 8.03783 32.83117 9.22619 2.53418 0.22807 14.15089-0.0795 16.84571-0.44602z" fill="#fff"/>
		</mask>
		<mask id="mask70" maskUnits="userSpaceOnUse">
			<path d="m279.6631 821.2919c-72.90064-2.41552-128.9443-31.38569-157.6247-81.47954-1.90439-3.32626-7.08749-12.25503-11.51801-19.8417-20.68604-35.42213-27.03471-55.84138-27.02197-86.91092 0.017407-42.47526 13.05429-80.71495 44.32853-130.0241 63.2982-99.80035 133.4013-221.2031 188.336-326.1558 12.32814-23.55288 18.68861-34.00515 29.25989-48.08328 34.6847-46.1908 79.73728-73.2675 126.1347-75.80723 8.84885-0.484374 53.27198-0.317798 59.93652 0.224747 56.74586 4.619556 109.5538 44.6119 144.9913 109.8045 1.58943 2.924 7.67069 14.38008 13.5139 25.45796 55.72383 105.6443 128.0163 230.1418 188.4064 324.4612 38.95341 60.83884 48.60989 128.6602 25.65387 180.1775-4.79195 10.75397-27.6936 50.45044-34.63147 60.02833-32.96715 45.51182-97.11222 71.54814-167.8901 68.14617-108.3534-5.20806-258.2553-5.55043-379.7608-0.86735-24.95011 0.96163-33.81279 1.14463-42.11425 0.86956zm231.0791-246.2057c11.98911-1.63064 23.02887-5.19785 29.06743-9.39237 17.23048-11.96868 29.77405-30.24996 34.77318-50.67924 1.26896-5.18567 1.79385-8.61897 2.40748-15.74707 0.34612-4.02058-2.43234-16.71202-5.29137-24.16992-7.86702-20.52145-22.91002-37.67261-38.75448-44.1856-22.79925-9.3718-49.54454-8.46706-71.21798 2.40918-7.90636 3.9676-19.7134 16.1792-26.34726 27.25005-7.75078 12.9348-13.05295 30.39839-12.24779 40.34014 2.14944 26.54015 16.093 50.57759 37.93391 65.39466 6.34707 4.30591 19.627 8.03783 32.83117 9.22619 2.53418 0.22807 14.15089-0.0795 16.84571-0.44602z" fill="#fff"/>
		</mask>
		<filter id="filter70" x="-.3486866" y="-.3551698" width="1.697405" height="1.7098" color-interpolation-filters="sRGB">
			<feGaussianBlur stdDeviation="93.189974"/>
		</filter>
		<mask id="mask69-40-4" maskUnits="userSpaceOnUse">
			<path d="m279.6631 821.2919c-72.90064-2.41552-128.9443-31.38569-157.6247-81.47954-1.90439-3.32626-7.08749-12.25503-11.51801-19.8417-20.68604-35.42213-27.03471-55.84138-27.02197-86.91092 0.017407-42.47526 13.05429-80.71495 44.32853-130.0241 63.2982-99.80035 133.4013-221.2031 188.336-326.1558 12.32814-23.55288 18.68861-34.00515 29.25989-48.08328 34.6847-46.1908 79.73728-73.2675 126.1347-75.80723 8.84885-0.484374 53.27198-0.317798 59.93652 0.224747 56.74586 4.619556 109.5538 44.6119 144.9913 109.8045 1.58943 2.924 7.67069 14.38008 13.5139 25.45796 55.72383 105.6443 128.0163 230.1418 188.4064 324.4612 38.95341 60.83884 48.60989 128.6602 25.65387 180.1775-4.79195 10.75397-27.6936 50.45044-34.63147 60.02833-32.96715 45.51182-97.11222 71.54814-167.8901 68.14617-108.3534-5.20806-258.2553-5.55043-379.7608-0.86735-24.95011 0.96163-33.81279 1.14463-42.11425 0.86956zm231.0791-246.2057c11.98911-1.63064 23.02887-5.19785 29.06743-9.39237 17.23048-11.96868 29.77405-30.24996 34.77318-50.67924 1.26896-5.18567 1.79385-8.61897 2.40748-15.74707 0.34612-4.02058-2.43234-16.71202-5.29137-24.16992-7.86702-20.52145-22.91002-37.67261-38.75448-44.1856-22.79925-9.3718-49.54454-8.46706-71.21798 2.40918-7.90636 3.9676-19.7134 16.1792-26.34726 27.25005-7.75078 12.9348-13.05295 30.39839-12.24779 40.34014 2.14944 26.54015 16.093 50.57759 37.93391 65.39466 6.34707 4.30591 19.627 8.03783 32.83117 9.22619 2.53418 0.22807 14.15089-0.0795 16.84571-0.44602z" fill="#fff"/>
		</mask>
		<filter id="filter70-2-9" x="-.1702053" y="-.169018" width="1.340411" height="1.338036" color-interpolation-filters="sRGB">
			<feGaussianBlur stdDeviation="32.575276"/>
		</filter>
	</defs>
	<g transform="matrix(1.143673 0 0 1.143673 -71.88115 .04956631)" mask="url(#mask70)">
		<path d="m580.5977 395.6934c-44.35068 1.30627-90.66463 10.06016-127.4308 36.24892-11.62454 27.34597 43.24163-15.14992 64.00429 0.36074 67.02365 17.25988 93.96062 97.00827 83.65994 159.599-10.44674 90.63203-86.35162 156.7359-166.1211 190.7218-43.00509 19.65304-89.96448 29.37775-136.5991 33.86083-19.61586 17.3865 43.30552 7.65368 58.26629 8.76339 124.456-4.3554 249.0311-1.11875 373.4166 1.83407 74.401-2.6791 154.4239-48.1962 169.1269-126.09 17.04516-92.6906-44.16725-179.9034-114.4657-233.7866-58.13462-44.17668-130.304-72.23997-203.8574-71.51214zm-24.68164 50.93945c-0.93794 9.53681-6.92896-3.97174 0 0z" fill="#4d4d00"/>
		<path d="m324.0801 158.5762c-26.29616 28.87678-38.84436 69.4894-60.26708 102.7378-50.01982 92.14375-106.1284 180.7851-159.7359 270.7867-35.25718 62.44527-39.10757 148.6332 12.64939 203.3463 63.49428 64.84414 167.1586 64.09149 247.5408 35.91949 111.7172-37.83999 211.538-137.0453 219.0411-259.1852 3.28787-23.31955-13.09527-35.34336-13.30443-4.79732-8.6789 58.946-78.67738 82.39948-130.1615 68.11883-88.13117-20.72167-148.1185-107.5618-152.6871-195.6443-6.39565-71.51187 6.72148-145.1567 39.32902-209.2647-1.13828-2.33844 5.43893-21.08336-2.40433-12.01758z" fill="#004d4d"/>
		<path d="m499.4082 46.74805c-80.03406 16.2567-135.1756 87.89424-157.3201 162.9318-37.61729 121.3274-9.37182 272.2861 97.01899 350.402 14.33076 15.81691 50.70142 18.10991 19.68526-2.95277-46.29221-36.51795-32.79807-107.2801 4.21912-145.1028 62.15414-68.4941 170.3177-76.71286 249.8625-35.19504 65.19199 31.01441 122.7731 79.58406 161.395 140.8402 30.29796 10.87777-20.70783-50.40465-29.10584-69.21318-62.29637-100.3398-118.1273-204.4858-175.0322-307.8705-36.1574-58.25853-99.69553-101.4408-170.7227-93.83966z" fill="#4d004d"/>
	</g>
	<g transform="matrix(1.143673 0 0 1.143673 -71.88115 .04956631)" filter="url(#filter70)" mask="url(#mask69)" style="mix-blend-mode:overlay">
		<circle cx="500" cy="500" r="178.5664" fill="#fff"/>
		<path d="m562.5358 896.5775s199.6588 6.50757 253.5028-13.91881c105.2801-39.93929 88.22587-59.3572 116.698-116.0329m-120.5584-519.0721s-94.19367-176.1633-138.8054-212.5805c-87.2285-71.20561-95.51778-46.72724-158.8365-43.04701m-389.2504 363.9427s-105.4651 169.6558-114.6974 226.4993c-18.05162 111.1449 7.291909 106.0844 42.13842 159.0799" fill="none" stroke="#fff" stroke-linecap="round" stroke-linejoin="round" stroke-width="200" style="font-variation-settings:normal"/>
	</g>
	<g transform="matrix(1.143673 0 0 1.143673 -71.88115 .04956631)" filter="url(#filter70-2-9)" mask="url(#mask69-40-4)" style="mix-blend-mode:overlay">
		<circle cx="500" cy="500" r="92.95095" fill="#fff"/>
		<path d="m444.0465 949.8081s217.8239-16.66009 277.172-21.03235c72.16139-5.31624 194.2871-31.18442 270.8462-72.25034m-74.54277-532.9723s-123.34-180.311-156.8005-229.5218c-40.6847-59.83548-124.1501-152.6654-197.9938-198.4346m-424.2962 331.0421s-94.48386 196.971-120.3714 250.5541c-31.4767 65.15172-70.13706 183.8498-72.8525 270.6849" fill="none" stroke="#fff" stroke-linecap="round" stroke-linejoin="round" stroke-width="200" style="font-variation-settings:normal"/>
	</g>
	<path d="m247.9619 939.5399c-83.32594-2.74136-147.4754-35.90105-180.2709-93.18435-2.17793-3.80415-7.574464-12.94773-11.86908-20.31906-8.709833-14.94967-8.074431-14.01901-7.825545-13.79937 0.100643 0.0889 0.975553 1.40811 1.944243 2.93178 52.52483 82.61623 184.6529 105.302 311.8021 53.53505 129.1669-52.58845 217.3484-161.1766 226.4416-278.8441 2.76895-35.83054-11.3576-68.7358-38.34441-89.86262-3.68295-2.88322-3.43676-3.0243 1.03267-0.38054 88.27125 52.21433 98.71583 198.7052 21.15307 296.6832-67.73464 85.56307-206.9396 147.0933-324.0638 143.24zm688.2401-100.7223c72.70357-145.764-101.3499-357.4005-310.7388-377.8358-73.68439-7.19125-155.7775 14.7201-187.4286 50.02631-14.49222 16.16578-22.69627 34.42527-25.58119 55.63592-0.49923 3.67053-0.90509-3.18271-0.44301-8.9642 8.43341-105.5203 132.3571-181.7892 257.1378-158.2557 91.94653 17.34103 196.0184 88.33619 255.2568 174.3348 55.33653 80.3341 67.13706 166.1101 32.29933 230.0799-3.04437 5.59013-21.19452 37.85402-22.36192 38.95076-0.15316 0.14389 0.69333-1.63382 1.85953-3.97195zm-479.8046-169.5678c-75.72672-5.72207-150.119-62.24204-183.5622-139.4625-45.70421-105.531-27.40975-268.0164 41.6703-370.102 40.68881-60.12941 95.83754-95.74279 153.0606-98.84194 11.97364-0.648479 49.29024-0.789099 42.04213-0.093426-131.9078 12.66049-225.0587 186.6758-196.0288 366.5464 14.3498 88.91221 58.7852 164.2784 123.9787 210.2784 32.11359 22.65909 69.42389 26.49119 102.5688 12.237 2.18647-0.9403 0.61703 0.63656-3.03578 2.69063-21.54574 12.11577-53.69282 18.78768-80.69369 16.74744z" fill="#fff" stroke-width="1.14367"/>
</svg>
